<svg width="61" height="61" viewBox="0 0 61 61" fill="none" xmlns="http://www.w3.org/2000/svg">
<g id="Logo Share 1500 1" clip-path="url(#clip0_1859_6976)">
<g id="Group">
<path id="Vector" d="M60.1147 0.781134C60.1147 0.766467 60.1089 0.752401 60.0985 0.74203C60.0881 0.731658 60.0741 0.72583 60.0594 0.72583H0.171515C0.164252 0.72583 0.157061 0.727261 0.150351 0.73004C0.143642 0.732819 0.137546 0.736894 0.132411 0.74203C0.127275 0.747165 0.1232 0.753261 0.120421 0.75997C0.117642 0.76668 0.116211 0.773871 0.116211 0.781134V60.669C0.116211 60.6763 0.117642 60.6835 0.120421 60.6902C0.1232 60.6969 0.127275 60.703 0.132411 60.7081C0.137546 60.7132 0.143642 60.7173 0.150351 60.7201C0.157061 60.7229 0.164252 60.7243 0.171515 60.7243H60.0594C60.0741 60.7243 60.0881 60.7185 60.0985 60.7081C60.1089 60.6977 60.1147 60.6837 60.1147 60.669V0.781134Z" stroke="#878787" stroke-width="0.151515"/>
<path id="Vector_2" d="M17.2124 12.4206C17.2949 12.4956 17.4275 12.4577 17.5252 12.4577C19.0126 12.4557 20.5038 12.4559 21.9987 12.4585C22.0598 12.4585 22.0826 12.4287 22.0669 12.3691C21.9831 12.0514 21.8613 11.7201 21.7017 11.3751C20.8674 9.56654 19.6081 8.1615 17.9237 7.15998C16.2161 6.14483 14.3252 5.74558 12.348 5.88952C11.3187 5.96427 10.3348 6.20821 9.39644 6.62134C8.87574 6.85064 8.41892 7.0923 8.02599 7.34634C7.02245 7.99483 6.18104 8.79457 5.50175 9.74558C4.57902 11.0365 4.0126 12.461 3.8025 14.0191C3.73659 14.5077 3.76008 14.9706 3.75705 15.6176C3.75503 16.015 3.78811 16.4148 3.85629 16.8168C4.42069 20.1342 6.65326 22.841 9.78887 24.0509C10.5151 24.3312 11.2692 24.511 12.051 24.5903C12.4212 24.6277 12.6644 24.6509 12.7805 24.66C12.98 24.6751 13.2209 24.6716 13.5033 24.6494C14.0649 24.6054 14.3747 24.5792 14.4328 24.5706C15.9487 24.3539 17.4283 23.7744 18.6775 22.8547C20.2134 21.7229 21.3164 20.2547 21.9866 18.4501C22.0386 18.3092 22.0687 18.1822 22.0767 18.0691C22.0772 18.0632 22.0764 18.0572 22.0744 18.0516C22.0724 18.046 22.0693 18.0409 22.0652 18.0366C22.0612 18.0322 22.0563 18.0288 22.0508 18.0264C22.0454 18.0241 22.0395 18.0228 22.0336 18.0229C20.6881 18.0365 19.1757 18.0375 17.4964 18.0259C17.3449 18.0251 17.2267 18.0479 17.1411 18.1691C16.7078 18.7832 16.1578 19.2683 15.4911 19.6244C14.4267 20.1933 13.154 20.391 11.9752 20.0812C10.8535 19.7857 9.95149 19.2037 9.26917 18.335C8.47372 17.3224 8.12119 16.1895 8.2116 14.9365C8.30301 13.6623 8.80958 12.585 9.73129 11.7047C10.65 10.8274 11.7366 10.3665 12.9911 10.3221C14.3949 10.2729 15.6904 10.8463 16.6858 11.8183C16.8525 11.9812 17.0374 12.2607 17.2124 12.4206Z" stroke="#878787" stroke-width="0.151515"/>
<path id="Vector_3" d="M54.117 6.20529C54.117 6.17435 54.1047 6.14467 54.0828 6.12279C54.0609 6.10091 54.0313 6.08862 54.0003 6.08862H49.7321C49.7168 6.08862 49.7017 6.09164 49.6875 6.0975C49.6733 6.10337 49.6605 6.11196 49.6497 6.12279C49.6388 6.13363 49.6302 6.14649 49.6244 6.16064C49.6185 6.1748 49.6155 6.18997 49.6155 6.20529V24.2886C49.6155 24.3039 49.6185 24.3191 49.6244 24.3333C49.6302 24.3474 49.6388 24.3603 49.6497 24.3711C49.6605 24.3819 49.6733 24.3905 49.6875 24.3964C49.7017 24.4023 49.7168 24.4053 49.7321 24.4053H54.0003C54.0157 24.4053 54.0308 24.4023 54.045 24.3964C54.0591 24.3905 54.072 24.3819 54.0828 24.3711C54.0937 24.3603 54.1023 24.3474 54.1081 24.3333C54.114 24.3191 54.117 24.3039 54.117 24.2886V6.20529Z" stroke="#878787" stroke-width="0.151515"/>
<path id="Vector_4" d="M31.7344 19.4804C33.3682 19.4648 35.0768 19.4633 36.8601 19.4759C37.5804 19.4809 38.0846 19.4665 38.373 19.4327C40.2715 19.2079 41.8011 18.3537 42.9617 16.8698C43.7632 15.8461 44.2228 14.6441 44.3405 13.2638C44.3793 12.8072 44.3564 12.3052 44.2715 11.7577C44.0821 10.5294 43.5846 9.43547 42.7791 8.47588C42.5382 8.18901 42.2786 7.92916 42.0003 7.69633C41.0942 6.93977 40.073 6.45113 38.9367 6.23042C38.5907 6.16325 38.0869 6.12941 37.4253 6.12891C37.3531 6.12891 33.9602 6.12891 27.2465 6.12891C27.2363 6.12891 27.2261 6.13094 27.2167 6.1349C27.2072 6.13886 27.1986 6.14467 27.1913 6.15198C27.1841 6.1593 27.1783 6.16798 27.1744 6.17754C27.1705 6.1871 27.1685 6.19735 27.1685 6.20769V10.4251C27.1685 10.4514 27.1789 10.4767 27.1976 10.4953C27.2162 10.5139 27.2414 10.5244 27.2677 10.5244C33.3379 10.5289 36.8311 10.5314 37.7473 10.5319C38.7185 10.5319 39.4389 11.1115 39.8048 11.9895C39.9634 12.3698 40.0081 12.7516 39.9389 13.135C39.8612 13.5688 39.6942 13.9365 39.4382 14.238C38.9513 14.8122 38.318 15.0989 37.5382 15.0978C34.3033 15.0938 32.4617 15.089 32.0132 15.0835C31.9051 15.0819 31.8008 15.0764 31.7003 15.0668C31.6904 15.066 31.6811 15.0615 31.6744 15.0542C31.6676 15.0469 31.6639 15.0373 31.6639 15.0274V12.466C31.6639 12.4494 31.6574 12.4334 31.6457 12.4216C31.6341 12.4098 31.6183 12.4031 31.6018 12.4031H27.273C27.2028 12.4031 27.1677 12.4385 27.1677 12.5092V24.2804C27.1677 24.3132 27.1807 24.3446 27.2037 24.3677C27.2267 24.3909 27.2579 24.4039 27.2905 24.4039H31.5973C31.6412 24.4039 31.6632 24.3817 31.6632 24.3372V19.5524C31.6632 19.5334 31.6707 19.5152 31.684 19.5018C31.6973 19.4883 31.7154 19.4806 31.7344 19.4804Z" stroke="#878787" stroke-width="0.151515"/>
<path id="Vector_5" d="M20.1267 34.1644C20.2884 34.1574 20.6252 34.149 21.1373 34.1394C21.3884 34.1349 21.6818 34.0781 22.0176 33.969C22.8245 33.7069 23.354 33.0508 23.3093 32.1819C23.2942 31.8869 23.2272 31.6351 23.1086 31.4266C22.751 30.7985 21.9904 30.5273 21.2873 30.5167C20.7293 30.5086 19.982 30.5074 19.0457 30.5129C19.0259 30.5131 19.007 30.5211 18.9931 30.5351C18.9792 30.5492 18.9714 30.5682 18.9714 30.5879V36.3917C18.9714 36.4009 18.9733 36.4099 18.9768 36.4184C18.9803 36.4268 18.9855 36.4345 18.9921 36.441C18.9986 36.4475 19.0064 36.4526 19.0149 36.4561C19.0235 36.4596 19.0326 36.4614 19.0419 36.4614H20.0169C20.037 36.4614 20.0563 36.4534 20.0705 36.4392C20.0847 36.425 20.0927 36.4057 20.0927 36.3856V34.2C20.0926 34.1909 20.0962 34.182 20.1025 34.1754C20.1089 34.1687 20.1176 34.1648 20.1267 34.1644Z" stroke="#878787" stroke-width="0.151515"/>
<path id="Vector_6" d="M48.0722 32.1136C48.0308 32.1136 48.0101 32.0931 48.0101 32.0522V31.0363C48.0101 31.0134 48.001 30.9914 47.9848 30.9752C47.9686 30.9591 47.9466 30.95 47.9237 30.95H46.9866C46.9577 30.95 46.9299 30.9614 46.9095 30.9819C46.889 31.0024 46.8775 31.0301 46.8775 31.059V32.0469C46.8775 32.0652 46.8703 32.0827 46.8573 32.0957C46.8444 32.1086 46.8269 32.1159 46.8086 32.1159H46.1866C46.1605 32.1159 46.1355 32.1263 46.117 32.1449C46.0985 32.1635 46.0881 32.1888 46.0881 32.2151V32.9265C46.0881 32.954 46.0991 32.9804 46.1185 32.9999C46.138 33.0193 46.1644 33.0303 46.1919 33.0303H46.7965C46.8192 33.0303 46.8409 33.0394 46.857 33.0556C46.8731 33.0717 46.8821 33.0937 46.8821 33.1166C46.8821 33.1575 46.8811 33.7292 46.879 34.8318C46.878 35.3595 46.9134 35.7128 46.9851 35.8916C47.1336 36.2628 47.4654 36.4782 47.9806 36.5378C48.3861 36.5843 48.8025 36.5643 49.2298 36.478C49.248 36.4743 49.2643 36.4645 49.2761 36.4501C49.2878 36.4357 49.2942 36.4177 49.2942 36.3992V35.6174C49.2942 35.6087 49.2925 35.6002 49.289 35.5922C49.2855 35.5843 49.2804 35.5771 49.274 35.5712C49.2676 35.5653 49.26 35.5608 49.2518 35.5579C49.2435 35.555 49.2348 35.5539 49.226 35.5545C48.8965 35.5765 48.5548 35.7136 48.2351 35.5984C48.1462 35.5666 48.0914 35.5174 48.0707 35.4507C48.0217 35.2947 47.9992 35.1295 48.0033 34.9553C48.0104 34.6643 48.0096 34.0532 48.001 33.1219C48.0009 33.1101 48.0032 33.0984 48.0076 33.0875C48.0121 33.0765 48.0186 33.0666 48.0269 33.0582C48.0352 33.0498 48.0451 33.0432 48.056 33.0386C48.0669 33.0341 48.0786 33.0318 48.0904 33.0318H49.1313C49.1586 33.0318 49.1849 33.0209 49.2042 33.0016C49.2235 32.9823 49.2343 32.9561 49.2343 32.9287V32.1719C49.2343 32.1565 49.2283 32.1416 49.2175 32.1307C49.2067 32.1197 49.192 32.1136 49.1768 32.1136H48.0722Z" stroke="#878787" stroke-width="0.151515"/>
<path id="Vector_7" d="M25.4919 32.5426L25.4032 32.1555C25.4 32.1427 25.3927 32.1313 25.3824 32.1232C25.3721 32.1151 25.3594 32.1107 25.3464 32.1108L24.5995 32.1123C24.5846 32.1123 24.5698 32.1152 24.5561 32.121C24.5423 32.1268 24.5299 32.1352 24.5194 32.1458C24.5089 32.1565 24.5006 32.1691 24.4949 32.183C24.4893 32.1968 24.4865 32.2117 24.4866 32.2267L24.4972 36.3653C24.4972 36.434 24.5315 36.4683 24.6002 36.4683L25.5366 36.4661C25.5569 36.4661 25.5763 36.458 25.5907 36.4437C25.605 36.4293 25.6131 36.4098 25.6131 36.3896C25.6131 35.283 25.6131 34.5254 25.6131 34.1168C25.6131 33.8355 25.6159 33.6832 25.6214 33.66C25.6598 33.4913 25.7598 33.3618 25.9214 33.2714C26.2588 33.0825 26.6197 33.0012 27.004 33.0274C27.0187 33.0283 27.0335 33.0261 27.0473 33.021C27.0612 33.0159 27.0738 33.0081 27.0846 32.9979C27.0953 32.9878 27.1038 32.9756 27.1096 32.962C27.1154 32.9484 27.1184 32.9338 27.1184 32.9191L27.1169 32.088C27.1168 32.0702 27.11 32.053 27.0979 32.0399C27.0858 32.0269 27.0694 32.0189 27.0517 32.0176C26.3977 31.9605 25.9048 32.1416 25.5729 32.5608C25.5675 32.5675 25.5603 32.5726 25.5522 32.5755C25.544 32.5784 25.5352 32.5789 25.5267 32.577C25.5183 32.5751 25.5105 32.5709 25.5044 32.5648C25.4982 32.5587 25.4939 32.551 25.4919 32.5426Z" stroke="#878787" stroke-width="0.151515"/>
<path id="Vector_8" d="M32.03 34.082C32.0391 33.8224 31.9969 33.5636 31.9059 33.3203C31.815 33.0769 31.677 32.8539 31.4998 32.664C31.3227 32.474 31.1098 32.3208 30.8734 32.213C30.6371 32.1053 30.3818 32.0452 30.1222 32.0362L29.7436 32.0229C29.484 32.0139 29.2252 32.056 28.9819 32.147C28.7386 32.238 28.5156 32.376 28.3256 32.5531C28.1356 32.7303 27.9824 32.9431 27.8747 33.1795C27.767 33.4159 27.7069 33.6711 27.6978 33.9307L27.678 34.4986C27.6689 34.7582 27.7111 35.017 27.802 35.2603C27.893 35.5036 28.031 35.7266 28.2081 35.9166C28.3853 36.1066 28.5981 36.2598 28.8345 36.3675C29.0709 36.4752 29.3262 36.5354 29.5858 36.5444L29.9643 36.5576C30.2239 36.5667 30.4828 36.5246 30.7261 36.4336C30.9694 36.3426 31.1924 36.2046 31.3824 36.0275C31.5723 35.8503 31.7256 35.6375 31.8333 35.4011C31.941 35.1647 32.0011 34.9095 32.0102 34.6498L32.03 34.082Z" stroke="#878787" stroke-width="0.151515"/>
<path id="Vector_9" d="M34.1509 32.4295L34.0933 32.1432C34.0894 32.1242 34.0784 32.1075 34.0626 32.0964C34.0468 32.0854 34.0274 32.081 34.0085 32.0841C33.7489 32.1255 33.4959 32.128 33.2494 32.0917C33.2335 32.0893 33.2172 32.0903 33.2017 32.0948C33.1862 32.0992 33.1719 32.107 33.1597 32.1175C33.1475 32.128 33.1376 32.141 33.1309 32.1556C33.1242 32.1702 33.1206 32.1862 33.1206 32.2023V38.4114C33.1206 38.4319 33.1287 38.4515 33.143 38.466C33.1574 38.4805 33.1768 38.4886 33.1971 38.4886H34.1426C34.1671 38.4886 34.1906 38.4789 34.2079 38.4616C34.2253 38.4442 34.235 38.4207 34.235 38.3962V36.3492C34.235 36.3339 34.2392 36.3189 34.2471 36.3057C34.255 36.2926 34.2663 36.2818 34.2799 36.2746C34.2934 36.2674 34.3086 36.264 34.3239 36.2647C34.3392 36.2654 34.3541 36.2703 34.3668 36.2788C34.7209 36.5152 35.11 36.6088 35.5342 36.5599C36.3077 36.4697 36.8994 35.8894 37.1191 35.1538C37.255 34.6987 37.285 34.2152 37.2092 33.703C37.1673 33.4182 37.0731 33.1449 36.9267 32.8833C36.7842 32.6288 36.5888 32.428 36.3403 32.2811C35.8115 31.9684 35.2484 31.9258 34.6509 32.153C34.5024 32.2091 34.3403 32.3606 34.2532 32.4409C34.2447 32.4488 34.2344 32.455 34.2235 32.4589C34.2126 32.4628 34.2013 32.4642 34.1909 32.4631C34.1805 32.4619 34.1714 32.4582 34.1643 32.4523C34.1573 32.4464 34.1527 32.4386 34.1509 32.4295Z" stroke="#878787" stroke-width="0.151515"/>
<path id="Vector_10" d="M39.2897 34.6917C39.2895 34.6841 39.2908 34.6765 39.2936 34.6695C39.2963 34.6624 39.3005 34.6559 39.3058 34.6505C39.3111 34.6451 39.3174 34.6407 39.3244 34.6378C39.3314 34.6349 39.3389 34.6333 39.3465 34.6333H42.0246C42.0367 34.6333 42.0432 34.6275 42.0442 34.6159C42.0725 34.2684 42.0677 33.9384 42.0299 33.6258C41.9715 33.1417 41.7162 32.6015 41.3147 32.3242C41.1258 32.1939 40.9084 32.1033 40.6624 32.0523C39.8359 31.8795 38.9435 32.1674 38.4935 32.9106C38.2965 33.2364 38.1849 33.5606 38.1586 33.8833C38.1364 34.1535 38.1435 34.5056 38.1799 34.9394C38.2127 35.3258 38.4031 35.6922 38.7511 36.0386C38.9213 36.2083 39.1829 36.35 39.5359 36.4636C39.7622 36.5364 40.0511 36.57 40.4026 36.5644C40.8435 36.5573 41.3152 36.4997 41.8177 36.3917C41.839 36.387 41.858 36.3751 41.8717 36.358C41.8853 36.341 41.8928 36.3197 41.8927 36.2977V35.4939C41.8927 35.4885 41.8915 35.4831 41.8892 35.4782C41.8869 35.4733 41.8836 35.4689 41.8794 35.4655C41.8753 35.462 41.8705 35.4595 41.8653 35.4581C41.8602 35.4568 41.8548 35.4566 41.8496 35.4576C41.7071 35.4854 41.4763 35.5371 41.1571 35.6129C40.9985 35.6503 40.7531 35.6649 40.4208 35.6568C40.0102 35.647 39.5867 35.4795 39.3988 35.1106C39.3291 34.9737 39.2927 34.8341 39.2897 34.6917Z" stroke="#878787" stroke-width="0.151515"/>
<path id="Vector_11" d="M44.0858 32.5432L43.9979 32.1569C43.9949 32.1439 43.9876 32.1324 43.9773 32.1242C43.967 32.1159 43.9542 32.1114 43.9411 32.1114H43.1956C43.1657 32.1114 43.137 32.1234 43.1158 32.1447C43.0947 32.166 43.0828 32.1949 43.0828 32.225V36.3584C43.0828 36.4271 43.1171 36.4614 43.1858 36.4614H44.1206C44.1409 36.4614 44.1604 36.4533 44.1747 36.439C44.1891 36.4247 44.1972 36.4052 44.1972 36.3849C44.1997 35.2798 44.2015 34.5235 44.2025 34.116C44.2035 33.8346 44.2068 33.6824 44.2123 33.6591C44.2512 33.491 44.3515 33.3619 44.5131 33.272C44.8504 33.0841 45.2108 33.0038 45.5941 33.0311C45.6089 33.032 45.6238 33.0299 45.6377 33.025C45.6516 33.02 45.6644 33.0122 45.6752 33.0021C45.686 32.992 45.6946 32.9799 45.7004 32.9663C45.7063 32.9528 45.7093 32.9383 45.7093 32.9235V32.0932C45.7093 32.0755 45.7028 32.0585 45.6908 32.0454C45.6789 32.0324 45.6625 32.0243 45.6449 32.0228C44.9919 31.9642 44.4992 32.1437 44.1669 32.5614C44.1614 32.5682 44.1543 32.5733 44.1461 32.5762C44.1379 32.579 44.1291 32.5795 44.1206 32.5776C44.1122 32.5758 44.1044 32.5715 44.0983 32.5654C44.0921 32.5593 44.0878 32.5517 44.0858 32.5432Z" stroke="#878787" stroke-width="0.151515"/>
<path id="Vector_12" d="M52.0534 34.8159C51.9681 34.6695 51.9077 34.5505 51.8723 34.4591C51.5991 33.7435 51.2948 32.9925 50.9595 32.2061C50.9472 32.1773 50.9266 32.1528 50.9003 32.1356C50.8741 32.1184 50.8433 32.1092 50.8117 32.1091H49.8428C49.8186 32.1091 49.8047 32.121 49.8011 32.1447C49.7895 32.217 49.8004 32.2917 49.8337 32.369C50.4696 33.8427 50.9847 35.0311 51.3792 35.9341C51.4504 36.097 51.4799 36.2409 51.4125 36.394C50.9984 37.3394 50.7062 38.0132 50.536 38.4152C50.5326 38.4233 50.5313 38.4322 50.5321 38.441C50.5329 38.4497 50.5358 38.4582 50.5406 38.4655C50.5454 38.4728 50.5519 38.4789 50.5596 38.483C50.5672 38.4872 50.5758 38.4894 50.5845 38.4894H51.4973C51.5336 38.4894 51.5691 38.4788 51.5994 38.4589C51.6297 38.439 51.6534 38.4106 51.6678 38.3773L54.3352 32.2478C54.3736 32.1589 54.3443 32.1144 54.2474 32.1144H53.2519C53.2274 32.1144 53.2034 32.1218 53.1832 32.1355C53.1629 32.1493 53.1472 32.1689 53.1383 32.1917L52.0996 34.8122C52.0979 34.8167 52.0949 34.8206 52.091 34.8235C52.0871 34.8264 52.0825 34.8281 52.0777 34.8285C52.0729 34.8289 52.068 34.828 52.0637 34.8257C52.0594 34.8235 52.0559 34.8201 52.0534 34.8159Z" stroke="#878787" stroke-width="0.151515"/>
<path id="Vector_13" d="M33.8153 46.3865V47.5744C33.8153 47.5892 33.8102 47.6035 33.8008 47.6151C33.7915 47.6267 33.7784 47.6348 33.7638 47.638C33.2179 47.7628 32.6961 47.7393 32.1987 47.5676C31.8131 47.4342 31.4146 47.0827 31.254 46.716C31.0479 46.2464 30.9833 45.765 31.06 45.2721C31.1363 44.7797 31.331 44.3817 31.6441 44.0782C31.9956 43.7368 32.4267 43.5426 32.9373 43.4956C33.3004 43.4623 33.602 43.4638 33.8419 43.5001C34.105 43.5395 34.3853 43.5918 34.6828 43.657C34.6888 43.6582 34.6951 43.6581 34.7011 43.6567C34.7071 43.6552 34.7128 43.6525 34.7175 43.6486C34.7223 43.6448 34.7262 43.6399 34.7288 43.6344C34.7315 43.6289 34.7328 43.6229 34.7328 43.6168V42.8312C34.7328 42.8014 34.7236 42.7723 34.7066 42.7478C34.6895 42.7233 34.6653 42.7046 34.6373 42.6941C34.1449 42.5107 33.729 42.5092 33.0691 42.5138C32.6919 42.5168 32.3913 42.5481 32.1676 42.6077C31.1252 42.888 30.2934 43.6471 30.0025 44.6873C29.8762 45.1408 29.8307 45.5847 29.8661 46.0191C29.9956 47.6009 31.0509 48.6017 32.657 48.6698C33.4434 48.7027 34.1727 48.6256 34.8449 48.4388C34.8691 48.4317 34.8871 48.4168 34.8987 48.3941C34.9194 48.3527 34.9302 48.2964 34.9312 48.2251C34.9424 47.3297 34.9419 46.3941 34.9297 45.4183C34.9295 45.3992 34.9218 45.3809 34.9082 45.3674C34.8945 45.3539 34.8762 45.3464 34.857 45.3464H32.5661C32.5541 45.3464 32.5421 45.3487 32.531 45.3534C32.5199 45.358 32.5098 45.3648 32.5013 45.3734C32.4928 45.382 32.486 45.3922 32.4814 45.4034C32.4768 45.4146 32.4744 45.4266 32.4744 45.4388V46.2274C32.4744 46.2519 32.4842 46.2754 32.5015 46.2928C32.5188 46.3101 32.5423 46.3198 32.5669 46.3198H33.7487C33.7663 46.3198 33.7833 46.3269 33.7958 46.3394C33.8083 46.3519 33.8153 46.3688 33.8153 46.3865Z" stroke="#878787" stroke-width="0.151515"/>
<path id="Vector_14" d="M37.3284 44.7114C37.3227 44.7152 37.316 44.7175 37.3091 44.7178C37.3022 44.7182 37.2953 44.7166 37.2892 44.7133C37.2831 44.71 37.2781 44.7052 37.2745 44.6992C37.271 44.6933 37.2692 44.6865 37.2693 44.6795V44.3811C37.2693 44.3405 37.2532 44.3015 37.2245 44.2728C37.1958 44.2441 37.1569 44.228 37.1163 44.228H36.3867C36.3711 44.228 36.356 44.2343 36.3449 44.2455C36.3339 44.2568 36.3276 44.272 36.3276 44.2879V48.4917C36.3276 48.5013 36.3295 48.5109 36.3332 48.5198C36.3369 48.5287 36.3423 48.5368 36.3492 48.5436C36.356 48.5504 36.3641 48.5559 36.373 48.5595C36.3819 48.5632 36.3915 48.5651 36.4011 48.5651H37.3079C37.3306 48.5651 37.3524 48.5561 37.3685 48.5401C37.3845 48.524 37.3935 48.5022 37.3935 48.4795C37.3971 47.8992 37.3971 47.0651 37.3935 45.9773C37.3928 45.7962 37.414 45.6379 37.5557 45.525C37.9188 45.2361 38.338 45.106 38.8132 45.1348C38.8236 45.1356 38.8341 45.1341 38.8439 45.1307C38.8537 45.1272 38.8627 45.1217 38.8703 45.1146C38.8779 45.1075 38.8839 45.0989 38.8881 45.0894C38.8922 45.0798 38.8943 45.0695 38.8943 45.0591V44.2121C38.8943 44.1237 38.8501 44.0831 38.7617 44.0901C38.4824 44.1124 38.2183 44.1629 37.9693 44.2417C37.7064 44.3242 37.5451 44.5674 37.3284 44.7114Z" stroke="#878787" stroke-width="0.151515"/>
<path id="Vector_15" d="M43.8305 46.1462C43.8387 45.6237 43.639 45.1193 43.2753 44.744C42.9116 44.3687 42.4138 44.1533 41.8912 44.145L41.517 44.1392C40.9945 44.131 40.4901 44.3307 40.1148 44.6943C39.7395 45.058 39.5241 45.5559 39.5159 46.0784L39.5066 46.6693C39.4984 47.1918 39.6981 47.6962 40.0618 48.0715C40.4254 48.4468 40.9233 48.6622 41.4458 48.6704L41.82 48.6763C42.3426 48.6845 42.847 48.4848 43.2223 48.1211C43.5975 47.7574 43.813 47.2596 43.8212 46.737L43.8305 46.1462Z" stroke="#878787" stroke-width="0.151515"/>
<path id="Vector_16" d="M51.1631 48.4219C51.1612 48.4153 51.1612 48.4083 51.1631 48.4016C51.165 48.395 51.1687 48.389 51.1738 48.3843C51.179 48.3797 51.1853 48.3766 51.1921 48.3753C51.1989 48.3741 51.2059 48.3747 51.2123 48.3773C51.3709 48.4404 51.5383 48.5088 51.7146 48.5826C51.8616 48.6442 51.9898 48.6757 52.0994 48.6773C52.2727 48.6793 52.4063 48.677 52.5002 48.6704C52.8335 48.6477 53.1361 48.5293 53.4078 48.3151C54.1419 47.7379 54.2919 46.847 54.2047 45.9144C54.1313 45.1295 53.6653 44.4379 52.8964 44.2023C52.4409 44.0624 52.0146 44.0911 51.6176 44.2886C51.4593 44.3674 51.3456 44.4863 51.2305 44.6106C51.2261 44.6154 51.2204 44.619 51.2141 44.6209C51.2078 44.6227 51.201 44.6229 51.1947 44.6212C51.1883 44.6196 51.1825 44.6163 51.1779 44.6116C51.1732 44.6069 51.1699 44.6011 51.1684 44.5947L51.1078 44.3288C51.1019 44.3032 51.0877 44.2804 51.0673 44.264C51.047 44.2476 51.0217 44.2387 50.9957 44.2386H50.1714C50.1219 44.2386 50.0972 44.2649 50.0972 44.3174V50.5848C50.0972 50.5933 50.0988 50.6017 50.1021 50.6095C50.1053 50.6173 50.11 50.6244 50.116 50.6304C50.122 50.6363 50.1291 50.6411 50.1369 50.6443C50.1447 50.6476 50.1531 50.6492 50.1616 50.6492H51.1843C51.2232 50.6492 51.2416 50.6298 51.2396 50.5909C51.2199 50.1687 51.2126 49.5757 51.2176 48.8121C51.2186 48.6762 51.2005 48.5462 51.1631 48.4219Z" stroke="#878787" stroke-width="0.151515"/>
<path id="Vector_17" d="M46.8745 48.6758C47.0644 48.6763 47.2101 48.671 47.3116 48.6599C47.9586 48.5897 48.4147 48.2819 48.6798 47.7364C48.8207 47.4471 48.8601 47.094 48.8609 46.766C48.8629 45.6917 48.8659 44.8746 48.87 44.3145C48.8705 44.2609 48.844 44.2342 48.7904 44.2342H47.792C47.7546 44.2342 47.7361 44.2529 47.7366 44.2902C47.7452 45.4791 47.7437 46.3604 47.7321 46.9342C47.7207 47.4622 47.3912 47.7713 46.876 47.7705C46.3616 47.769 46.0329 47.4584 46.0245 46.9304C46.0154 46.3566 46.0177 45.4753 46.0313 44.2864C46.0324 44.2491 46.0142 44.2304 45.9768 44.2304L44.9783 44.2258C44.9248 44.2253 44.898 44.2519 44.898 44.3054C44.8995 44.8655 44.899 45.6827 44.8965 46.7569C44.8957 47.0849 44.9336 47.4387 45.073 47.7281C45.3356 48.2751 45.7904 48.5852 46.4374 48.6584C46.5389 48.6695 46.6846 48.6753 46.8745 48.6758Z" stroke="#878787" stroke-width="0.151515"/>
<path id="Vector_18" d="M20.0852 31.4561L20.0973 33.1622C20.0973 33.1688 20.1 33.1752 20.1046 33.1799C20.1093 33.1846 20.1157 33.1872 20.1223 33.1872L20.9564 33.1811C21.2697 33.179 21.5697 33.0932 21.7903 32.9426C22.0109 32.792 22.1341 32.589 22.1329 32.3781L22.1314 32.2129C22.1299 32.002 22.004 31.8006 21.7814 31.653C21.5588 31.5054 21.2577 31.4237 20.9443 31.4258L20.1102 31.4311C20.1036 31.4311 20.0972 31.4338 20.0925 31.4384C20.0878 31.4431 20.0852 31.4495 20.0852 31.4561Z" stroke="#878787" stroke-width="0.151515"/>
<path id="Vector_19" d="M29.8502 35.6736C29.9893 35.6738 30.1272 35.6382 30.2559 35.5688C30.3846 35.4994 30.5017 35.3975 30.6003 35.269C30.6989 35.1405 30.7773 34.9879 30.8308 34.8199C30.8844 34.6519 30.9121 34.4718 30.9124 34.2898C30.9127 34.1078 30.8856 33.9276 30.8327 33.7594C30.7797 33.5912 30.7019 33.4383 30.6037 33.3095C30.5055 33.1806 30.3889 33.0784 30.2604 33.0085C30.1319 32.9387 29.9942 32.9026 29.855 32.9023C29.7158 32.9021 29.5779 32.9377 29.4492 33.0071C29.3205 33.0765 29.2035 33.1784 29.1049 33.3069C29.0062 33.4354 28.9279 33.588 28.8743 33.756C28.8208 33.924 28.793 34.1041 28.7927 34.2861C28.7924 34.4681 28.8195 34.6483 28.8725 34.8165C28.9254 34.9847 29.0032 35.1376 29.1014 35.2664C29.1996 35.3953 29.3163 35.4975 29.4448 35.5674C29.5732 35.6372 29.711 35.6733 29.8502 35.6736Z" stroke="#878787" stroke-width="0.151515"/>
<path id="Vector_20" d="M34.439 33.1893C34.3031 33.2893 34.2339 33.4025 34.2314 33.5287C34.2284 33.6868 34.2302 34.1787 34.2367 35.0045C34.2375 35.1666 34.2428 35.3007 34.3791 35.3984C34.8261 35.7204 35.5246 35.8234 35.8443 35.2749C36.1387 34.7699 36.1968 34.2196 36.0185 33.6242C35.9296 33.3272 35.7582 33.1146 35.5041 32.9863C35.167 32.8166 34.7208 32.9818 34.439 33.1893Z" stroke="#878787" stroke-width="0.151515"/>
<path id="Vector_21" d="M39.4238 33.785L40.8587 33.782C40.8764 33.782 40.8933 33.775 40.9058 33.7625C40.9183 33.7499 40.9254 33.733 40.9254 33.7153V33.6767C40.925 33.4663 40.8421 33.2647 40.6951 33.1163C40.548 32.9678 40.3488 32.8846 40.1413 32.885H40.1382C40.0355 32.8852 39.9337 32.9059 39.8389 32.946C39.744 32.986 39.6578 33.0446 39.5853 33.1184C39.5128 33.1922 39.4553 33.2797 39.4162 33.376C39.377 33.4724 39.357 33.5755 39.3572 33.6797V33.7183C39.3572 33.736 39.3642 33.753 39.3767 33.7655C39.3892 33.778 39.4062 33.785 39.4238 33.785Z" stroke="#878787" stroke-width="0.151515"/>
<path id="Vector_22" d="M41.6678 47.7901C41.8072 47.7901 41.9452 47.7543 42.074 47.6848C42.2027 47.6153 42.3197 47.5134 42.4183 47.3849C42.5169 47.2565 42.595 47.104 42.6484 46.9361C42.7017 46.7683 42.7292 46.5884 42.7292 46.4068C42.7292 46.2251 42.7017 46.0452 42.6484 45.8774C42.595 45.7096 42.5169 45.5571 42.4183 45.4286C42.3197 45.3002 42.2027 45.1983 42.074 45.1287C41.9452 45.0592 41.8072 45.0234 41.6678 45.0234C41.3863 45.0234 41.1164 45.1692 40.9173 45.4286C40.7183 45.688 40.6064 46.0399 40.6064 46.4068C40.6064 46.7737 40.7183 47.1255 40.9173 47.3849C41.1164 47.6444 41.3863 47.7901 41.6678 47.7901Z" stroke="#878787" stroke-width="0.151515"/>
<path id="Vector_23" d="M51.2192 46.3971C51.2091 46.9274 51.205 47.2026 51.207 47.2228C51.2396 47.5084 51.6298 47.6895 51.8722 47.7652C52.4055 47.9304 52.8404 47.5645 52.9934 47.063C53.0611 46.8392 53.097 46.6291 53.101 46.4327C53.1045 46.2357 53.0765 46.0243 53.0169 45.7986C52.8836 45.2918 52.4624 44.9092 51.923 45.0546C51.6783 45.1213 51.2813 45.2872 51.2381 45.5721C51.2351 45.5918 51.2288 45.8668 51.2192 46.3971Z" stroke="#878787" stroke-width="0.151515"/>
</g>
<path id="Vector_24" d="M87.6146 -26.7756V86.8607H-26.0217V-26.7756H87.6146ZM60.1146 0.781181C60.1146 0.766514 60.1088 0.752449 60.0984 0.742077C60.0881 0.731707 60.074 0.725878 60.0593 0.725878H0.171452C0.164188 0.725878 0.156998 0.727308 0.150288 0.730087C0.143578 0.732866 0.137484 0.736942 0.132347 0.742077C0.127213 0.747213 0.123137 0.753309 0.120358 0.760017C0.117579 0.766727 0.116148 0.773918 0.116148 0.781181V60.6691C0.116148 60.6763 0.117579 60.6835 0.120358 60.6902C0.123137 60.6969 0.127213 60.703 0.132347 60.7082C0.137484 60.7133 0.143578 60.7174 0.150288 60.7202C0.156998 60.7229 0.164188 60.7244 0.171452 60.7244H60.0593C60.074 60.7244 60.0881 60.7185 60.0984 60.7082C60.1088 60.6978 60.1146 60.6837 60.1146 60.6691V0.781181Z" fill="#FBF8F4"/>
<path id="Vector_25" d="M60.1147 60.669C60.1147 60.6837 60.1089 60.6977 60.0985 60.7081C60.0881 60.7185 60.0741 60.7243 60.0594 60.7243H0.171515C0.164252 60.7243 0.157061 60.7229 0.150351 60.7201C0.143642 60.7173 0.137546 60.7132 0.132411 60.7081C0.127275 60.703 0.1232 60.6969 0.120421 60.6902C0.117642 60.6835 0.116211 60.6763 0.116211 60.669V0.781134C0.116211 0.773871 0.117642 0.76668 0.120421 0.75997C0.1232 0.753261 0.127275 0.747165 0.132411 0.74203C0.137546 0.736894 0.143642 0.732819 0.150351 0.73004C0.157061 0.727261 0.164252 0.72583 0.171515 0.72583H60.0594C60.0741 0.72583 60.0881 0.731658 60.0985 0.74203C60.1089 0.752401 60.1147 0.766467 60.1147 0.781134V60.669ZM17.2124 12.4205C17.295 12.4955 17.4276 12.4577 17.5253 12.4577C19.0127 12.4556 20.5038 12.4559 21.9988 12.4584C22.0599 12.4584 22.0826 12.4286 22.067 12.369C21.9831 12.0513 21.8614 11.72 21.7018 11.3751C20.8675 9.56649 19.6081 8.16144 17.9238 7.15992C16.2162 6.14477 14.3253 5.74553 12.348 5.88947C11.3187 5.96421 10.3349 6.20815 9.39651 6.62129C8.87581 6.85058 8.41899 7.09225 8.02606 7.34629C7.02252 7.99477 6.18111 8.79452 5.50182 9.74553C4.57909 11.0364 4.01268 12.4609 3.80257 14.019C3.73667 14.5076 3.76015 14.9705 3.75712 15.6175C3.7551 16.015 3.78818 16.4147 3.85636 16.8167C4.42076 20.1342 6.65333 22.841 9.78894 24.0508C10.5152 24.3311 11.2692 24.5109 12.0511 24.5902C12.4213 24.6276 12.6644 24.6508 12.7806 24.6599C12.9801 24.6751 13.221 24.6715 13.5033 24.6493C14.0649 24.6054 14.3748 24.5791 14.4329 24.5705C15.9488 24.3539 17.4283 23.7743 18.6776 22.8546C20.2134 21.7228 21.3165 20.2546 21.9867 18.4501C22.0387 18.3092 22.0687 18.1821 22.0768 18.069C22.0772 18.0631 22.0764 18.0571 22.0744 18.0516C22.0725 18.046 22.0693 18.0408 22.0653 18.0365C22.0612 18.0322 22.0563 18.0287 22.0509 18.0264C22.0454 18.024 22.0396 18.0228 22.0336 18.0228C20.6882 18.0364 19.1758 18.0374 17.4965 18.0258C17.345 18.0251 17.2268 18.0478 17.1412 18.169C16.7079 18.7832 16.1579 19.2683 15.4912 19.6243C14.4268 20.1933 13.1541 20.391 11.9753 20.0811C10.8536 19.7857 9.95157 19.2036 9.26924 18.3349C8.47379 17.3223 8.12126 16.1895 8.21167 14.9364C8.30308 13.6622 8.80965 12.5849 9.73136 11.7046C10.6501 10.8273 11.7367 10.3665 12.9912 10.322C14.395 10.2728 15.6905 10.8463 16.6859 11.8183C16.8526 11.9811 17.0374 12.2607 17.2124 12.4205ZM54.117 6.20538C54.117 6.17444 54.1047 6.14476 54.0828 6.12288C54.0609 6.101 54.0312 6.08871 54.0003 6.08871H49.7321C49.7168 6.08871 49.7016 6.09173 49.6875 6.09759C49.6733 6.10345 49.6605 6.11205 49.6496 6.12288C49.6388 6.13371 49.6302 6.14658 49.6243 6.16073C49.6185 6.17489 49.6155 6.19006 49.6155 6.20538V24.2887C49.6155 24.304 49.6185 24.3192 49.6243 24.3334C49.6302 24.3475 49.6388 24.3604 49.6496 24.3712C49.6605 24.382 49.6733 24.3906 49.6875 24.3965C49.7016 24.4024 49.7168 24.4054 49.7321 24.4054H54.0003C54.0156 24.4054 54.0308 24.4024 54.0449 24.3965C54.0591 24.3906 54.072 24.382 54.0828 24.3712C54.0936 24.3604 54.1022 24.3475 54.1081 24.3334C54.1139 24.3192 54.117 24.304 54.117 24.2887V6.20538ZM31.7344 19.4804C33.3682 19.4647 35.0768 19.4632 36.8601 19.4758C37.5804 19.4809 38.0846 19.4665 38.373 19.4327C40.2715 19.2079 41.8011 18.3536 42.9617 16.8698C43.7632 15.846 44.2228 14.644 44.3405 13.2637C44.3793 12.8071 44.3564 12.3051 44.2715 11.7577C44.0821 10.5294 43.5846 9.43543 42.7791 8.47583C42.5382 8.18896 42.2786 7.92911 42.0003 7.69629C41.0942 6.93972 40.073 6.45108 38.9367 6.23038C38.5907 6.1632 38.0869 6.12937 37.4253 6.12886C37.3531 6.12886 33.9602 6.12886 27.2465 6.12886C27.2363 6.12886 27.2261 6.1309 27.2167 6.13486C27.2072 6.13882 27.1986 6.14462 27.1913 6.15194C27.1841 6.15926 27.1783 6.16794 27.1744 6.1775C27.1705 6.18706 27.1685 6.1973 27.1685 6.20765V10.4251C27.1685 10.4514 27.1789 10.4766 27.1976 10.4952C27.2162 10.5139 27.2414 10.5243 27.2677 10.5243C33.3379 10.5289 36.8311 10.5314 37.7473 10.5319C38.7185 10.5319 39.4389 11.1114 39.8048 11.9895C39.9634 12.3698 40.0081 12.7516 39.9389 13.1349C39.8612 13.5688 39.6942 13.9364 39.4382 14.238C38.9513 14.8122 38.318 15.0988 37.5382 15.0978C34.3033 15.0938 32.4617 15.089 32.0132 15.0834C31.9051 15.0819 31.8008 15.0763 31.7003 15.0667C31.6904 15.066 31.6811 15.0615 31.6744 15.0542C31.6676 15.0469 31.6639 15.0373 31.6639 15.0273V12.466C31.6639 12.4493 31.6574 12.4333 31.6457 12.4215C31.6341 12.4097 31.6183 12.4031 31.6018 12.4031H27.273C27.2028 12.4031 27.1677 12.4385 27.1677 12.5092V24.2804C27.1677 24.3131 27.1807 24.3445 27.2037 24.3677C27.2267 24.3909 27.2579 24.4039 27.2905 24.4039H31.5973C31.6412 24.4039 31.6632 24.3816 31.6632 24.3372V19.5523C31.6632 19.5334 31.6707 19.5152 31.684 19.5017C31.6973 19.4882 31.7154 19.4806 31.7344 19.4804ZM20.1268 34.1645C20.2884 34.1574 20.6253 34.1491 21.1374 34.1395C21.3884 34.1349 21.6819 34.0781 22.0177 33.969C22.8245 33.7069 23.3541 33.0508 23.3094 32.1819C23.2942 31.8869 23.2273 31.6352 23.1086 31.4266C22.7511 30.7986 21.9905 30.5273 21.2874 30.5167C20.7293 30.5087 19.9821 30.5074 19.0458 30.513C19.026 30.5132 19.0071 30.5211 18.9932 30.5352C18.9793 30.5492 18.9715 30.5682 18.9715 30.588V36.3917C18.9715 36.4009 18.9733 36.41 18.9769 36.4184C18.9804 36.4269 18.9856 36.4346 18.9921 36.441C18.9987 36.4475 19.0065 36.4526 19.015 36.4561C19.0236 36.4596 19.0327 36.4614 19.042 36.4614H20.017C20.0371 36.4614 20.0563 36.4535 20.0705 36.4393C20.0847 36.425 20.0927 36.4058 20.0927 36.3857V34.2001C20.0927 34.1909 20.0963 34.1821 20.1026 34.1754C20.109 34.1688 20.1176 34.1649 20.1268 34.1645ZM48.0723 32.1137C48.0309 32.1137 48.0101 32.0933 48.0101 32.0523V31.0364C48.0101 31.0135 48.0011 30.9916 47.9849 30.9754C47.9687 30.9592 47.9467 30.9501 47.9238 30.9501H46.9867C46.9577 30.9501 46.93 30.9616 46.9095 30.982C46.8891 31.0025 46.8776 31.0302 46.8776 31.0592V32.047C46.8776 32.0653 46.8703 32.0829 46.8574 32.0958C46.8445 32.1087 46.8269 32.116 46.8086 32.116H46.1867C46.1605 32.116 46.1355 32.1264 46.117 32.145C46.0986 32.1637 46.0882 32.1889 46.0882 32.2152V32.9266C46.0882 32.9541 46.0991 32.9805 46.1186 33C46.1381 33.0194 46.1644 33.0304 46.192 33.0304H46.7965C46.8192 33.0304 46.841 33.0395 46.857 33.0557C46.8731 33.0719 46.8821 33.0938 46.8821 33.1167C46.8821 33.1576 46.8811 33.7294 46.8791 34.8319C46.8781 35.3597 46.9134 35.713 46.9852 35.8917C47.1336 36.263 47.4655 36.4784 47.9806 36.538C48.3862 36.5844 48.8026 36.5645 49.2299 36.4781C49.248 36.4744 49.2644 36.4646 49.2761 36.4502C49.2879 36.4358 49.2943 36.4179 49.2942 36.3993V35.6175C49.2943 35.6088 49.2925 35.6003 49.289 35.5923C49.2855 35.5844 49.2804 35.5772 49.274 35.5713C49.2676 35.5654 49.2601 35.5609 49.2518 35.558C49.2436 35.5552 49.2348 35.554 49.2261 35.5546C48.8965 35.5766 48.5549 35.7137 48.2352 35.5986C48.1463 35.5667 48.0915 35.5175 48.0708 35.4508C48.0218 35.2948 47.9993 35.1296 48.0033 34.9554C48.0104 34.6645 48.0096 34.0534 48.0011 33.122C48.001 33.1102 48.0032 33.0985 48.0077 33.0876C48.0121 33.0767 48.0187 33.0667 48.027 33.0583C48.0353 33.05 48.0452 33.0433 48.0561 33.0388C48.067 33.0342 48.0787 33.0319 48.0905 33.0319H49.1314C49.1587 33.0319 49.1849 33.021 49.2042 33.0017C49.2235 32.9824 49.2344 32.9562 49.2344 32.9289V32.172C49.2344 32.1566 49.2283 32.1417 49.2175 32.1308C49.2067 32.1199 49.1921 32.1137 49.1768 32.1137H48.0723ZM25.492 32.5425L25.4033 32.1554C25.4001 32.1426 25.3928 32.1312 25.3825 32.1231C25.3722 32.115 25.3595 32.1107 25.3465 32.1107L24.5995 32.1122C24.5847 32.1122 24.5699 32.1152 24.5562 32.1209C24.5424 32.1267 24.53 32.1351 24.5195 32.1457C24.509 32.1564 24.5007 32.169 24.495 32.1829C24.4894 32.1967 24.4866 32.2116 24.4867 32.2266L24.4973 36.3652C24.4973 36.4339 24.5316 36.4683 24.6003 36.4683L25.5367 36.466C25.557 36.466 25.5764 36.4579 25.5908 36.4436C25.6051 36.4292 25.6132 36.4098 25.6132 36.3895C25.6132 35.2829 25.6132 34.5253 25.6132 34.1167C25.6132 33.8354 25.616 33.6832 25.6215 33.6599C25.6599 33.4912 25.7599 33.3617 25.9215 33.2713C26.2589 33.0824 26.6197 33.0011 27.0041 33.0273C27.0188 33.0282 27.0336 33.026 27.0474 33.0209C27.0613 33.0158 27.0739 33.008 27.0846 32.9978C27.0954 32.9877 27.1039 32.9755 27.1097 32.9619C27.1155 32.9484 27.1185 32.9338 27.1185 32.919L27.117 32.088C27.1168 32.0701 27.1101 32.0529 27.098 32.0399C27.0859 32.0268 27.0695 32.0188 27.0518 32.0175C26.3978 31.9604 25.9048 32.1415 25.573 32.5607C25.5676 32.5674 25.5604 32.5726 25.5523 32.5754C25.5441 32.5783 25.5353 32.5788 25.5268 32.5769C25.5184 32.575 25.5106 32.5708 25.5045 32.5647C25.4983 32.5586 25.494 32.5509 25.492 32.5425ZM32.0301 34.082C32.0392 33.8224 31.997 33.5635 31.9061 33.3202C31.8151 33.0769 31.6771 32.8539 31.4999 32.6639C31.3228 32.4739 31.1099 32.3207 30.8736 32.213C30.6372 32.1053 30.3819 32.0452 30.1223 32.0361L29.7438 32.0229C29.4842 32.0138 29.2253 32.056 28.982 32.1469C28.7387 32.2379 28.5157 32.3759 28.3257 32.5531C28.1357 32.7302 27.9825 32.9431 27.8748 33.1794C27.7671 33.4158 27.707 33.6711 27.6979 33.9307L27.6781 34.4985C27.669 34.7581 27.7112 35.0169 27.8021 35.2603C27.8931 35.5036 28.0311 35.7266 28.2083 35.9165C28.3854 36.1065 28.5982 36.2597 28.8346 36.3675C29.071 36.4752 29.3263 36.5353 29.5859 36.5444L29.9644 36.5576C30.224 36.5666 30.4829 36.5245 30.7262 36.4335C30.9695 36.3426 31.1925 36.2045 31.3825 36.0274C31.5724 35.8502 31.7257 35.6374 31.8334 35.401C31.9411 35.1647 32.0012 34.9094 32.0103 34.6498L32.0301 34.082ZM34.1511 32.4296L34.0935 32.1433C34.0896 32.1243 34.0786 32.1075 34.0628 32.0965C34.047 32.0855 34.0276 32.0811 34.0086 32.0842C33.749 32.1256 33.496 32.1281 33.2495 32.0917C33.2336 32.0893 33.2174 32.0904 33.2019 32.0949C33.1864 32.0993 33.1721 32.1071 33.1598 32.1176C33.1476 32.1281 33.1378 32.1411 33.1311 32.1557C33.1243 32.1703 33.1208 32.1862 33.1208 32.2023V38.4114C33.1208 38.4319 33.1288 38.4516 33.1432 38.4661C33.1575 38.4806 33.177 38.4887 33.1973 38.4887H34.1427C34.1672 38.4887 34.1907 38.479 34.2081 38.4616C34.2254 38.4443 34.2352 38.4208 34.2352 38.3963V36.3493C34.2352 36.334 34.2394 36.319 34.2473 36.3058C34.2552 36.2927 34.2665 36.2819 34.28 36.2747C34.2935 36.2675 34.3088 36.264 34.3241 36.2648C34.3394 36.2655 34.3542 36.2704 34.367 36.2789C34.721 36.5152 35.1101 36.6089 35.5344 36.5599C36.3079 36.4698 36.8995 35.8895 37.1192 35.1539C37.2551 34.6988 37.2852 34.2152 37.2094 33.7031C37.1675 33.4183 37.0733 33.145 36.9268 32.8834C36.7844 32.6289 36.5889 32.4281 36.3405 32.2811C35.8117 31.9685 35.2485 31.9258 34.6511 32.1531C34.5026 32.2092 34.3405 32.3607 34.2533 32.441C34.2448 32.4489 34.2346 32.4551 34.2236 32.459C34.2127 32.4628 34.2015 32.4643 34.1911 32.4631C34.1807 32.462 34.1715 32.4583 34.1645 32.4524C34.1575 32.4465 34.1528 32.4386 34.1511 32.4296ZM39.2897 34.6917C39.2895 34.6842 39.2908 34.6766 39.2936 34.6695C39.2963 34.6625 39.3005 34.656 39.3058 34.6506C39.3111 34.6451 39.3174 34.6408 39.3244 34.6379C39.3314 34.6349 39.3389 34.6334 39.3465 34.6334H42.0246C42.0367 34.6334 42.0432 34.6276 42.0442 34.616C42.0725 34.2685 42.0677 33.9385 42.0299 33.6258C41.9715 33.1417 41.7162 32.6016 41.3147 32.3243C41.1258 32.194 40.9084 32.1034 40.6624 32.0523C39.8359 31.8796 38.9435 32.1675 38.4935 32.9107C38.2965 33.2364 38.1849 33.5607 38.1586 33.8834C38.1364 34.1536 38.1435 34.5056 38.1799 34.9395C38.2127 35.3258 38.4031 35.6922 38.7511 36.0387C38.9213 36.2084 39.1829 36.3501 39.5359 36.4637C39.7622 36.5364 40.0511 36.57 40.4026 36.5645C40.8435 36.5574 41.3152 36.4998 41.8177 36.3917C41.839 36.3871 41.858 36.3752 41.8717 36.3581C41.8853 36.341 41.8927 36.3198 41.8927 36.2978V35.494C41.8927 35.4886 41.8915 35.4832 41.8892 35.4783C41.8869 35.4734 41.8836 35.469 41.8794 35.4655C41.8753 35.4621 41.8705 35.4596 41.8653 35.4582C41.8602 35.4568 41.8548 35.4566 41.8495 35.4576C41.7071 35.4854 41.4763 35.5372 41.1571 35.613C40.9985 35.6503 40.7531 35.665 40.4208 35.6569C40.0102 35.647 39.5867 35.4796 39.3988 35.1107C39.3291 34.9738 39.2927 34.8342 39.2897 34.6917ZM44.0859 32.5433L43.998 32.1569C43.995 32.144 43.9877 32.1324 43.9774 32.1242C43.9671 32.116 43.9543 32.1115 43.9412 32.1114H43.1958C43.1658 32.1114 43.1371 32.1234 43.1159 32.1447C43.0948 32.166 43.0829 32.1949 43.0829 32.2251V36.3584C43.0829 36.4271 43.1172 36.4614 43.1859 36.4614H44.1208C44.141 36.4614 44.1605 36.4534 44.1749 36.439C44.1892 36.4247 44.1973 36.4052 44.1973 36.3849C44.1998 35.2799 44.2016 34.5236 44.2026 34.116C44.2036 33.8347 44.2069 33.6824 44.2124 33.6592C44.2513 33.491 44.3516 33.3619 44.5132 33.272C44.8506 33.0842 45.2109 33.0039 45.5942 33.0311C45.609 33.0321 45.6239 33.03 45.6378 33.025C45.6518 33.02 45.6645 33.0122 45.6753 33.0021C45.6861 32.9921 45.6947 32.9799 45.7006 32.9664C45.7064 32.9528 45.7094 32.9383 45.7094 32.9236V32.0933C45.7095 32.0756 45.7029 32.0585 45.691 32.0455C45.679 32.0324 45.6626 32.0243 45.645 32.0228C44.992 31.9642 44.4993 32.1438 44.167 32.5614C44.1616 32.5682 44.1544 32.5733 44.1462 32.5762C44.138 32.5791 44.1292 32.5796 44.1208 32.5777C44.1123 32.5758 44.1046 32.5716 44.0984 32.5655C44.0922 32.5594 44.0879 32.5517 44.0859 32.5433ZM52.0533 34.816C51.968 34.6695 51.9076 34.5506 51.8723 34.4592C51.599 33.7435 51.2947 32.9925 50.9594 32.2061C50.9471 32.1774 50.9265 32.1529 50.9003 32.1356C50.874 32.1184 50.8432 32.1092 50.8117 32.1092H49.8427C49.8185 32.1092 49.8046 32.121 49.8011 32.1448C49.7894 32.217 49.8003 32.2917 49.8336 32.369C50.4695 33.8428 50.9846 35.0311 51.3791 35.9342C51.4503 36.097 51.4798 36.241 51.4124 36.394C50.9983 37.3395 50.7061 38.0132 50.5359 38.4152C50.5326 38.4234 50.5312 38.4322 50.532 38.441C50.5328 38.4498 50.5358 38.4582 50.5406 38.4655C50.5453 38.4729 50.5518 38.4789 50.5595 38.4831C50.5671 38.4872 50.5757 38.4894 50.5844 38.4895H51.4973C51.5335 38.4895 51.569 38.4789 51.5993 38.4589C51.6296 38.439 51.6534 38.4106 51.6677 38.3773L54.3351 32.2478C54.3735 32.1589 54.3442 32.1145 54.2473 32.1145H53.2518C53.2273 32.1144 53.2034 32.1218 53.1831 32.1356C53.1628 32.1494 53.1472 32.1689 53.1382 32.1917L52.0995 34.8122C52.0978 34.8167 52.0948 34.8206 52.0909 34.8235C52.0871 34.8264 52.0824 34.8282 52.0776 34.8286C52.0728 34.829 52.068 34.828 52.0637 34.8258C52.0594 34.8235 52.0558 34.8202 52.0533 34.816ZM33.8155 46.3864V47.5743C33.8154 47.5891 33.8103 47.6035 33.801 47.615C33.7916 47.6266 33.7785 47.6347 33.7639 47.638C33.218 47.7627 32.6963 47.7392 32.1988 47.5675C31.8132 47.4342 31.4147 47.0827 31.2541 46.716C31.048 46.2463 30.9834 45.765 31.0602 45.272C31.1364 44.7796 31.3311 44.3816 31.6442 44.0781C31.9958 43.7367 32.4268 43.5425 32.9374 43.4955C33.3006 43.4622 33.6021 43.4637 33.842 43.5001C34.1051 43.5395 34.3854 43.5917 34.6829 43.6569C34.689 43.6581 34.6952 43.658 34.7012 43.6566C34.7073 43.6551 34.7129 43.6524 34.7177 43.6486C34.7225 43.6447 34.7263 43.6399 34.7289 43.6343C34.7316 43.6288 34.7329 43.6228 34.7329 43.6167V42.8311C34.7329 42.8014 34.7237 42.7723 34.7067 42.7478C34.6896 42.7233 34.6655 42.7045 34.6374 42.694C34.145 42.5107 33.7291 42.5092 33.0692 42.5137C32.692 42.5167 32.3915 42.548 32.1677 42.6076C31.1253 42.888 30.2935 43.647 30.0026 44.6872C29.8763 45.1407 29.8309 45.5847 29.8662 46.019C29.9958 47.6008 31.0511 48.6016 32.6571 48.6698C33.4435 48.7026 34.1728 48.6256 34.845 48.4387C34.8692 48.4316 34.8872 48.4167 34.8988 48.394C34.9195 48.3526 34.9304 48.2963 34.9314 48.2251C34.9425 47.3296 34.942 46.394 34.9298 45.4183C34.9296 45.3991 34.9219 45.3808 34.9083 45.3673C34.8947 45.3538 34.8763 45.3463 34.8571 45.3463H32.5662C32.5542 45.3463 32.5423 45.3487 32.5311 45.3533C32.52 45.358 32.5099 45.3648 32.5014 45.3734C32.4929 45.3819 32.4861 45.3921 32.4815 45.4033C32.4769 45.4146 32.4745 45.4266 32.4745 45.4387V46.2273C32.4745 46.2519 32.4843 46.2754 32.5016 46.2927C32.5189 46.31 32.5425 46.3198 32.567 46.3198H33.7488C33.7665 46.3198 33.7834 46.3268 33.7959 46.3393C33.8084 46.3518 33.8155 46.3688 33.8155 46.3864ZM37.3283 44.7114C37.3226 44.7153 37.3159 44.7175 37.309 44.7179C37.3021 44.7182 37.2952 44.7167 37.2892 44.7134C37.2831 44.7101 37.278 44.7052 37.2745 44.6993C37.271 44.6933 37.2692 44.6865 37.2692 44.6796V44.3811C37.2692 44.3405 37.2531 44.3016 37.2244 44.2729C37.1957 44.2442 37.1568 44.2281 37.1162 44.2281H36.3867C36.371 44.2281 36.356 44.2344 36.3449 44.2456C36.3338 44.2569 36.3276 44.2721 36.3276 44.288V48.4917C36.3276 48.5014 36.3295 48.5109 36.3332 48.5199C36.3369 48.5288 36.3423 48.5369 36.3491 48.5437C36.3559 48.5505 36.364 48.5559 36.3729 48.5596C36.3819 48.5633 36.3914 48.5652 36.4011 48.5652H37.3079C37.3306 48.5652 37.3524 48.5562 37.3684 48.5402C37.3845 48.5241 37.3935 48.5023 37.3935 48.4796C37.397 47.8993 37.397 47.0652 37.3935 45.9774C37.3927 45.7963 37.4139 45.638 37.5556 45.5251C37.9187 45.2362 38.3379 45.1061 38.8132 45.1349C38.8236 45.1356 38.834 45.1342 38.8438 45.1308C38.8536 45.1273 38.8626 45.1218 38.8702 45.1147C38.8778 45.1076 38.8839 45.099 38.888 45.0894C38.8922 45.0799 38.8943 45.0696 38.8942 45.0592V44.2122C38.8942 44.1238 38.8501 44.0832 38.7617 44.0902C38.4824 44.1124 38.2182 44.163 37.9692 44.2417C37.7064 44.3243 37.545 44.5675 37.3283 44.7114ZM43.8304 46.1461C43.8386 45.6236 43.6389 45.1192 43.2753 44.7439C42.9116 44.3686 42.4137 44.1532 41.8912 44.145L41.517 44.1391C40.9944 44.1309 40.4901 44.3306 40.1148 44.6943C39.7395 45.0579 39.524 45.5558 39.5158 46.0783L39.5065 46.6692C39.4983 47.1917 39.698 47.6961 40.0617 48.0714C40.4254 48.4467 40.9233 48.6621 41.4458 48.6703L41.82 48.6762C42.3425 48.6844 42.8469 48.4847 43.2222 48.121C43.5975 47.7574 43.8129 47.2595 43.8211 46.737L43.8304 46.1461ZM51.1632 48.422C51.1613 48.4154 51.1613 48.4084 51.1632 48.4017C51.1651 48.3951 51.1688 48.3891 51.1739 48.3844C51.1791 48.3798 51.1854 48.3767 51.1922 48.3754C51.199 48.3742 51.206 48.3748 51.2124 48.3773C51.371 48.4405 51.5384 48.5089 51.7147 48.5826C51.8617 48.6443 51.9899 48.6758 52.0995 48.6773C52.2728 48.6794 52.4064 48.6771 52.5003 48.6705C52.8336 48.6478 53.1362 48.5294 53.4079 48.3152C54.142 47.738 54.292 46.847 54.2048 45.9145C54.1314 45.1296 53.6655 44.438 52.8965 44.2023C52.441 44.0625 52.0147 44.0912 51.6177 44.2887C51.4594 44.3675 51.3458 44.4864 51.2306 44.6107C51.2262 44.6155 51.2205 44.6191 51.2142 44.621C51.2079 44.6228 51.2012 44.623 51.1948 44.6213C51.1884 44.6197 51.1826 44.6164 51.178 44.6117C51.1733 44.607 51.1701 44.6012 51.1685 44.5948L51.1079 44.3289C51.1021 44.3033 51.0878 44.2805 51.0674 44.2641C51.0471 44.2477 51.0218 44.2388 50.9958 44.2387H50.1715C50.122 44.2387 50.0973 44.265 50.0973 44.3175V50.5849C50.0973 50.5934 50.0989 50.6018 50.1022 50.6096C50.1054 50.6174 50.1102 50.6245 50.1161 50.6305C50.1221 50.6364 50.1292 50.6412 50.137 50.6444C50.1448 50.6477 50.1532 50.6493 50.1617 50.6493H51.1844C51.2233 50.6493 51.2417 50.6299 51.2397 50.591C51.22 50.1688 51.2127 49.5758 51.2177 48.8122C51.2187 48.6763 51.2006 48.5463 51.1632 48.422ZM46.8745 48.6758C47.0644 48.6763 47.2102 48.671 47.3117 48.6599C47.9586 48.5897 48.4147 48.2819 48.6799 47.7364C48.8208 47.447 48.8602 47.094 48.8609 46.766C48.8629 45.6917 48.866 44.8746 48.87 44.3145C48.8705 44.2609 48.844 44.2342 48.7905 44.2342H47.792C47.7546 44.2342 47.7362 44.2529 47.7367 44.2902C47.7453 45.4791 47.7437 46.3604 47.7321 46.9342C47.7208 47.4622 47.3912 47.7713 46.8761 47.7705C46.3617 47.769 46.0329 47.4584 46.0245 46.9304C46.0155 46.3566 46.0177 45.4753 46.0314 44.2864C46.0324 44.2491 46.0142 44.2304 45.9768 44.2304L44.9783 44.2258C44.9248 44.2253 44.898 44.2518 44.898 44.3054C44.8995 44.8655 44.899 45.6826 44.8965 46.7569C44.8958 47.0849 44.9336 47.4387 45.073 47.7281C45.3357 48.2751 45.7905 48.5852 46.4374 48.6584C46.5389 48.6695 46.6846 48.6753 46.8745 48.6758Z" fill="#878787"/>
<path id="Vector_26" d="M17.2126 12.4206C17.0376 12.2607 16.8527 11.9812 16.6861 11.8183C15.6906 10.8463 14.3952 10.2729 12.9914 10.3221C11.7368 10.3665 10.6502 10.8274 9.73154 11.7047C8.80982 12.585 8.30325 13.6623 8.21184 14.9365C8.12144 16.1895 8.47396 17.3224 9.26942 18.335C9.95174 19.2037 10.8538 19.7857 11.9755 20.0812C13.1543 20.391 14.427 20.1933 15.4914 19.6244C16.158 19.2683 16.7081 18.7832 17.1414 18.1691C17.227 18.0479 17.3452 18.0251 17.4967 18.0259C19.176 18.0375 20.6884 18.0365 22.0338 18.0229C22.0397 18.0228 22.0456 18.0241 22.0511 18.0264C22.0565 18.0288 22.0614 18.0322 22.0655 18.0366C22.0695 18.0409 22.0726 18.046 22.0746 18.0516C22.0766 18.0572 22.0774 18.0632 22.077 18.0691C22.0689 18.1822 22.0389 18.3092 21.9868 18.4501C21.3166 20.2547 20.2136 21.7229 18.6778 22.8547C17.4285 23.7744 15.949 24.3539 14.4331 24.5706C14.375 24.5792 14.0651 24.6054 13.5035 24.6494C13.2212 24.6716 12.9803 24.6751 12.7808 24.66C12.6646 24.6509 12.4214 24.6277 12.0512 24.5903C11.2694 24.511 10.5154 24.3312 9.78911 24.0509C6.65351 22.841 4.42093 20.1342 3.85654 16.8168C3.78836 16.4148 3.75527 16.015 3.75729 15.6176C3.76032 14.9706 3.73684 14.5077 3.80275 14.0191C4.01285 12.461 4.57926 11.0365 5.50199 9.74558C6.18128 8.79457 7.0227 7.99483 8.02623 7.34634C8.41916 7.0923 8.87598 6.85064 9.39669 6.62134C10.3351 6.20821 11.3189 5.96427 12.3482 5.88952C14.3255 5.74558 16.2164 6.14483 17.924 7.15998C19.6083 8.1615 20.8676 9.56655 21.702 11.3751C21.8616 11.7201 21.9833 12.0514 22.0671 12.3691C22.0828 12.4287 22.0601 12.4585 21.999 12.4585C20.504 12.4559 19.0128 12.4557 17.5255 12.4577C17.4277 12.4577 17.2952 12.4956 17.2126 12.4206Z" fill="#FBF8F4"/>
<path id="Vector_27" d="M54.0003 6.08887H49.7321C49.6677 6.08887 49.6155 6.1411 49.6155 6.20553V24.2889C49.6155 24.3533 49.6677 24.4055 49.7321 24.4055H54.0003C54.0648 24.4055 54.117 24.3533 54.117 24.2889V6.20553C54.117 6.1411 54.0648 6.08887 54.0003 6.08887Z" fill="#FBF8F4"/>
<path id="Vector_28" d="M31.7344 19.4804C31.7154 19.4806 31.6973 19.4883 31.684 19.5018C31.6707 19.5152 31.6632 19.5334 31.6632 19.5524V24.3372C31.6632 24.3817 31.6412 24.4039 31.5973 24.4039H27.2905C27.2579 24.4039 27.2267 24.3909 27.2037 24.3677C27.1807 24.3446 27.1677 24.3132 27.1677 24.2804V12.5092C27.1677 12.4385 27.2028 12.4031 27.273 12.4031H31.6018C31.6183 12.4031 31.6341 12.4098 31.6457 12.4216C31.6574 12.4334 31.6639 12.4494 31.6639 12.466V15.0274C31.6639 15.0373 31.6676 15.0469 31.6744 15.0542C31.6811 15.0615 31.6904 15.066 31.7003 15.0668C31.8008 15.0764 31.9051 15.0819 32.0132 15.0835C32.4617 15.089 34.3033 15.0938 37.5382 15.0978C38.318 15.0989 38.9513 14.8122 39.4382 14.238C39.6942 13.9365 39.8612 13.5688 39.9389 13.135C40.0081 12.7516 39.9634 12.3698 39.8048 11.9895C39.4389 11.1115 38.7185 10.5319 37.7473 10.5319C36.8311 10.5314 33.3379 10.5289 27.2677 10.5244C27.2414 10.5244 27.2162 10.5139 27.1976 10.4953C27.1789 10.4767 27.1685 10.4514 27.1685 10.4251V6.20769C27.1685 6.19735 27.1705 6.1871 27.1744 6.17754C27.1783 6.16798 27.1841 6.1593 27.1913 6.15198C27.1986 6.14467 27.2072 6.13886 27.2167 6.1349C27.2261 6.13094 27.2363 6.12891 27.2465 6.12891C33.9602 6.12891 37.3531 6.12891 37.4253 6.12891C38.0869 6.12941 38.5907 6.16325 38.9367 6.23042C40.073 6.45113 41.0942 6.93977 42.0003 7.69633C42.2786 7.92916 42.5382 8.18901 42.7791 8.47588C43.5846 9.43547 44.0821 10.5294 44.2715 11.7577C44.3564 12.3052 44.3793 12.8072 44.3405 13.2638C44.2228 14.6441 43.7632 15.8461 42.9617 16.8698C41.8011 18.3537 40.2715 19.2079 38.373 19.4327C38.0846 19.4665 37.5803 19.4809 36.8601 19.4759C35.0768 19.4633 33.3682 19.4648 31.7344 19.4804Z" fill="#FBF8F4"/>
<path id="Vector_29" d="M20.127 34.1644C20.1178 34.1648 20.1091 34.1687 20.1028 34.1754C20.0964 34.182 20.0929 34.1909 20.0929 34.2V36.3856C20.0929 36.4057 20.0849 36.425 20.0707 36.4392C20.0565 36.4534 20.0372 36.4614 20.0171 36.4614H19.0421C19.0329 36.4614 19.0237 36.4596 19.0152 36.4561C19.0066 36.4526 18.9989 36.4475 18.9923 36.441C18.9858 36.4345 18.9806 36.4268 18.977 36.4184C18.9735 36.4099 18.9717 36.4009 18.9717 36.3917V30.5879C18.9717 30.5682 18.9795 30.5492 18.9934 30.5351C19.0073 30.5211 19.0262 30.5131 19.0459 30.5129C19.9823 30.5074 20.7295 30.5086 21.2876 30.5167C21.9906 30.5273 22.7512 30.7985 23.1088 31.4266C23.2275 31.6351 23.2944 31.8869 23.3096 32.1819C23.3543 33.0508 22.8247 33.7069 22.0179 33.969C21.682 34.0781 21.3886 34.1349 21.1376 34.1394C20.6255 34.149 20.2886 34.1574 20.127 34.1644ZM20.0853 31.4561L20.0974 33.1622C20.0974 33.1688 20.1001 33.1751 20.1048 33.1798C20.1094 33.1845 20.1158 33.1872 20.1224 33.1872L20.9565 33.1811C21.2698 33.179 21.5698 33.0932 21.7904 32.9426C22.011 32.792 22.1343 32.589 22.133 32.3781L22.1315 32.2129C22.13 32.002 22.0041 31.8006 21.7815 31.653C21.5589 31.5054 21.2578 31.4236 20.9444 31.4258L20.1103 31.4311C20.1037 31.4311 20.0973 31.4337 20.0926 31.4384C20.088 31.4431 20.0853 31.4495 20.0853 31.4561Z" fill="#FBF8F4"/>
<path id="Vector_30" d="M48.0722 32.1138H49.1768C49.192 32.1138 49.2067 32.12 49.2175 32.1309C49.2283 32.1419 49.2343 32.1567 49.2343 32.1722V32.929C49.2343 32.9563 49.2235 32.9825 49.2042 33.0018C49.1849 33.0212 49.1586 33.032 49.1313 33.032H48.0904C48.0786 33.032 48.0669 33.0344 48.056 33.0389C48.0451 33.0434 48.0352 33.0501 48.0269 33.0585C48.0186 33.0668 48.0121 33.0768 48.0076 33.0877C48.0032 33.0987 48.0009 33.1104 48.001 33.1222C48.0096 34.0535 48.0104 34.6646 48.0033 34.9555C47.9992 35.1297 48.0217 35.2949 48.0707 35.451C48.0914 35.5176 48.1462 35.5669 48.2351 35.5987C48.5548 35.7138 48.8965 35.5767 49.226 35.5547C49.2348 35.5541 49.2435 35.5553 49.2518 35.5582C49.26 35.561 49.2676 35.5656 49.274 35.5715C49.2804 35.5774 49.2855 35.5845 49.289 35.5925C49.2925 35.6004 49.2942 35.609 49.2942 35.6176V36.3994C49.2942 36.418 49.2878 36.436 49.2761 36.4503C49.2643 36.4647 49.248 36.4746 49.2298 36.4782C48.8025 36.5646 48.3861 36.5845 47.9806 36.5381C47.4654 36.4785 47.1336 36.2631 46.9851 35.8919C46.9134 35.7131 46.878 35.3598 46.879 34.832C46.8811 33.7295 46.8821 33.1578 46.8821 33.1169C46.8821 33.094 46.8731 33.072 46.857 33.0558C46.8409 33.0396 46.8192 33.0305 46.7965 33.0305H46.1919C46.1644 33.0305 46.138 33.0196 46.1185 33.0001C46.0991 32.9806 46.0881 32.9542 46.0881 32.9267V32.2153C46.0881 32.189 46.0985 32.1638 46.117 32.1452C46.1355 32.1266 46.1605 32.1161 46.1866 32.1161H46.8086C46.8269 32.1161 46.8444 32.1088 46.8573 32.0959C46.8703 32.083 46.8775 32.0655 46.8775 32.0472V31.0593C46.8775 31.0304 46.889 31.0026 46.9095 30.9822C46.9299 30.9617 46.9577 30.9502 46.9866 30.9502H47.9237C47.9466 30.9502 47.9686 30.9593 47.9848 30.9755C48.001 30.9917 48.0101 31.0137 48.0101 31.0366V32.0525C48.0101 32.0934 48.0308 32.1138 48.0722 32.1138Z" fill="#FBF8F4"/>
<path id="Vector_31" d="M20.0852 31.4561C20.0852 31.4495 20.0878 31.4431 20.0925 31.4384C20.0972 31.4338 20.1036 31.4311 20.1102 31.4311L20.9443 31.4258C21.2577 31.4237 21.5588 31.5054 21.7814 31.653C22.004 31.8006 22.1299 32.002 22.1314 32.2129L22.1329 32.3781C22.1341 32.589 22.0109 32.792 21.7903 32.9426C21.5697 33.0932 21.2697 33.179 20.9564 33.1811L20.1223 33.1872C20.1157 33.1872 20.1093 33.1846 20.1046 33.1799C20.1 33.1752 20.0973 33.1688 20.0973 33.1622L20.0852 31.4561Z" fill="#878787"/>
<path id="Vector_32" d="M25.4921 32.5426C25.4941 32.551 25.4984 32.5587 25.5046 32.5648C25.5108 32.5709 25.5185 32.5751 25.527 32.577C25.5354 32.5789 25.5442 32.5784 25.5524 32.5755C25.5606 32.5726 25.5678 32.5675 25.5732 32.5608C25.905 32.1416 26.3979 31.9605 27.052 32.0176C27.0696 32.0189 27.0861 32.0269 27.0982 32.0399C27.1102 32.053 27.117 32.0702 27.1171 32.088L27.1186 32.9191C27.1187 32.9338 27.1157 32.9484 27.1099 32.962C27.104 32.9756 27.0955 32.9878 27.0848 32.9979C27.0741 33.0081 27.0614 33.0159 27.0476 33.021C27.0337 33.0261 27.019 33.0283 27.0042 33.0274C26.6199 33.0012 26.259 33.0825 25.9217 33.2714C25.7601 33.3618 25.66 33.4913 25.6217 33.66C25.6161 33.6832 25.6133 33.8355 25.6133 34.1168C25.6133 34.5254 25.6133 35.283 25.6133 36.3896C25.6133 36.4098 25.6053 36.4293 25.5909 36.4437C25.5766 36.458 25.5571 36.4661 25.5368 36.4661L24.6005 36.4683C24.5318 36.4683 24.4974 36.434 24.4974 36.3653L24.4868 32.2267C24.4867 32.2117 24.4896 32.1968 24.4952 32.183C24.5008 32.1691 24.5091 32.1565 24.5196 32.1458C24.5301 32.1352 24.5426 32.1268 24.5563 32.121C24.5701 32.1152 24.5848 32.1123 24.5997 32.1123L25.3467 32.1108C25.3597 32.1107 25.3723 32.1151 25.3826 32.1232C25.3929 32.1313 25.4003 32.1427 25.4035 32.1555L25.4921 32.5426Z" fill="#FBF8F4"/>
<path id="Vector_33" d="M32.0104 34.6498C32.0013 34.9095 31.9412 35.1647 31.8335 35.4011C31.7258 35.6375 31.5726 35.8503 31.3826 36.0275C31.1926 36.2046 30.9696 36.3426 30.7263 36.4336C30.483 36.5246 30.2242 36.5667 29.9646 36.5576L29.586 36.5444C29.3264 36.5354 29.0711 36.4752 28.8347 36.3675C28.5984 36.2598 28.3855 36.1066 28.2084 35.9166C28.0312 35.7266 27.8932 35.5036 27.8023 35.2603C27.7113 35.017 27.6691 34.7582 27.6782 34.4986L27.698 33.9307C27.7071 33.6711 27.7672 33.4159 27.8749 33.1795C27.9826 32.9431 28.1359 32.7303 28.3258 32.5531C28.5158 32.376 28.7388 32.238 28.9821 32.147C29.2254 32.056 29.4843 32.0139 29.7439 32.0229L30.1224 32.0362C30.382 32.0452 30.6373 32.1053 30.8737 32.213C31.1101 32.3208 31.3229 32.474 31.5001 32.664C31.6772 32.8539 31.8152 33.0769 31.9062 33.3203C31.9972 33.5636 32.0393 33.8224 32.0302 34.082L32.0104 34.6498ZM29.8503 35.6736C29.9895 35.6739 30.1274 35.6383 30.2561 35.5689C30.3848 35.4994 30.5018 35.3976 30.6004 35.2691C30.6991 35.1406 30.7774 34.988 30.831 34.82C30.8845 34.652 30.9122 34.4718 30.9126 34.2899C30.9129 34.1079 30.8858 33.9277 30.8328 33.7595C30.7798 33.5913 30.702 33.4384 30.6038 33.3095C30.5057 33.1807 30.389 33.0784 30.2605 33.0086C30.1321 32.9387 29.9943 32.9027 29.8551 32.9024C29.7159 32.9022 29.5781 32.9378 29.4494 33.0072C29.3206 33.0766 29.2036 33.1784 29.105 33.3069C29.0063 33.4354 28.928 33.588 28.8745 33.7561C28.8209 33.9241 28.7932 34.1042 28.7929 34.2862C28.7925 34.4681 28.8196 34.6484 28.8726 34.8166C28.9256 34.9848 29.0034 35.1376 29.1016 35.2665C29.1998 35.3953 29.3164 35.4976 29.4449 35.5674C29.5734 35.6373 29.7111 35.6734 29.8503 35.6736Z" fill="#FBF8F4"/>
<path id="Vector_34" d="M34.1512 32.4298C34.1529 32.4388 34.1576 32.4467 34.1646 32.4525C34.1716 32.4584 34.1808 32.4621 34.1912 32.4633C34.2016 32.4644 34.2128 32.463 34.2237 32.4591C34.2347 32.4552 34.2449 32.449 34.2534 32.4412C34.3405 32.3608 34.5027 32.2093 34.6512 32.1533C35.2486 31.926 35.8118 31.9687 36.3405 32.2813C36.589 32.4283 36.7845 32.629 36.9269 32.8836C37.0734 33.1452 37.1676 33.4184 37.2095 33.7033C37.2852 34.2154 37.2552 34.699 37.1193 35.154C36.8996 35.8896 36.308 36.4699 35.5345 36.5601C35.1102 36.6091 34.7211 36.5154 34.3671 36.279C34.3543 36.2705 34.3395 36.2657 34.3242 36.2649C34.3088 36.2642 34.2936 36.2676 34.2801 36.2749C34.2666 36.2821 34.2553 36.2928 34.2474 36.306C34.2395 36.3191 34.2353 36.3342 34.2352 36.3495V38.3965C34.2352 38.421 34.2255 38.4445 34.2082 38.4618C34.1908 38.4791 34.1673 38.4889 34.1428 38.4889H33.1974C33.1771 38.4889 33.1576 38.4807 33.1433 38.4662C33.1289 38.4518 33.1208 38.4321 33.1208 38.4116V32.2025C33.1209 32.1864 33.1244 32.1705 33.1311 32.1559C33.1379 32.1412 33.1477 32.1282 33.1599 32.1177C33.1721 32.1072 33.1865 32.0995 33.202 32.095C33.2174 32.0906 33.2337 32.0895 33.2496 32.0919C33.4961 32.1283 33.7491 32.1257 34.0087 32.0843C34.0277 32.0812 34.0471 32.0857 34.0629 32.0967C34.0787 32.1077 34.0897 32.1244 34.0936 32.1434L34.1512 32.4298ZM34.439 33.1896C34.3032 33.2896 34.234 33.4028 34.2315 33.529C34.2284 33.6871 34.2302 34.179 34.2368 35.0048C34.2375 35.1669 34.2428 35.301 34.3792 35.3987C34.8262 35.7207 35.5246 35.8237 35.8443 35.2752C36.1388 34.7702 36.1969 34.2199 36.0186 33.6245C35.9297 33.3275 35.7582 33.1149 35.5042 32.9866C35.1671 32.8169 34.7209 32.9821 34.439 33.1896Z" fill="#FBF8F4"/>
<path id="Vector_35" d="M39.2897 34.6917C39.2927 34.8341 39.3291 34.9737 39.3988 35.1106C39.5867 35.4795 40.0102 35.647 40.4208 35.6568C40.7531 35.6649 40.9985 35.6503 41.1571 35.6129C41.4763 35.5371 41.7071 35.4854 41.8496 35.4576C41.8548 35.4566 41.8602 35.4568 41.8653 35.4581C41.8705 35.4595 41.8753 35.462 41.8794 35.4655C41.8836 35.4689 41.8869 35.4733 41.8892 35.4782C41.8915 35.4831 41.8927 35.4885 41.8927 35.4939V36.2977C41.8928 36.3197 41.8853 36.341 41.8717 36.358C41.858 36.3751 41.839 36.387 41.8177 36.3917C41.3152 36.4997 40.8435 36.5573 40.4026 36.5644C40.0511 36.57 39.7622 36.5364 39.5359 36.4636C39.1829 36.35 38.9213 36.2083 38.7511 36.0386C38.4031 35.6922 38.2127 35.3258 38.1799 34.9394C38.1435 34.5056 38.1364 34.1535 38.1586 33.8833C38.1849 33.5606 38.2965 33.2364 38.4935 32.9106C38.9435 32.1674 39.8359 31.8795 40.6624 32.0523C40.9084 32.1033 41.1258 32.1939 41.3147 32.3242C41.7162 32.6015 41.9715 33.1417 42.0299 33.6258C42.0677 33.9384 42.0725 34.2684 42.0442 34.6159C42.0432 34.6275 42.0367 34.6333 42.0246 34.6333H39.3465C39.3389 34.6333 39.3314 34.6349 39.3244 34.6378C39.3174 34.6407 39.3111 34.6451 39.3058 34.6505C39.3005 34.6559 39.2963 34.6624 39.2936 34.6695C39.2908 34.6765 39.2895 34.6841 39.2897 34.6917ZM39.4238 33.7849L40.8586 33.7818C40.8763 33.7818 40.8933 33.7748 40.9058 33.7623C40.9183 33.7498 40.9253 33.7328 40.9253 33.7152V33.6765C40.9249 33.4662 40.8421 33.2646 40.695 33.1161C40.548 32.9676 40.3488 32.8845 40.1412 32.8849H40.1382C40.0354 32.885 39.9337 32.9058 39.8388 32.9458C39.7439 32.9858 39.6578 33.0444 39.5853 33.1182C39.5127 33.192 39.4553 33.2796 39.4161 33.3759C39.377 33.4722 39.3569 33.5754 39.3571 33.6795V33.7182C39.3571 33.7359 39.3641 33.7528 39.3767 33.7653C39.3892 33.7778 39.4061 33.7849 39.4238 33.7849Z" fill="#FBF8F4"/>
<path id="Vector_36" d="M44.086 32.5432C44.088 32.5517 44.0924 32.5593 44.0985 32.5654C44.1047 32.5715 44.1124 32.5758 44.1209 32.5776C44.1293 32.5795 44.1382 32.579 44.1463 32.5762C44.1545 32.5733 44.1617 32.5682 44.1671 32.5614C44.4994 32.1437 44.9921 31.9642 45.6451 32.0228C45.6627 32.0243 45.6791 32.0324 45.6911 32.0454C45.703 32.0585 45.7096 32.0755 45.7095 32.0932V32.9235C45.7096 32.9383 45.7066 32.9528 45.7007 32.9663C45.6948 32.9799 45.6862 32.992 45.6754 33.0021C45.6646 33.0122 45.6519 33.02 45.6379 33.025C45.624 33.0299 45.6092 33.032 45.5944 33.0311C45.211 33.0038 44.8507 33.0841 44.5133 33.272C44.3517 33.3619 44.2514 33.491 44.2126 33.6591C44.207 33.6824 44.2037 33.8346 44.2027 34.116C44.2017 34.5235 44.1999 35.2798 44.1974 36.3849C44.1974 36.4052 44.1893 36.4247 44.175 36.439C44.1606 36.4533 44.1412 36.4614 44.1209 36.4614H43.186C43.1174 36.4614 43.083 36.4271 43.083 36.3584V32.225C43.083 32.1949 43.0949 32.166 43.1161 32.1447C43.1372 32.1234 43.1659 32.1114 43.1959 32.1114H43.9413C43.9545 32.1114 43.9672 32.1159 43.9775 32.1242C43.9878 32.1324 43.9951 32.1439 43.9982 32.1569L44.086 32.5432Z" fill="#FBF8F4"/>
<path id="Vector_37" d="M52.0534 34.8159C52.0559 34.8201 52.0594 34.8235 52.0637 34.8257C52.068 34.828 52.0729 34.8289 52.0777 34.8285C52.0825 34.8281 52.0871 34.8264 52.091 34.8235C52.0949 34.8206 52.0979 34.8167 52.0996 34.8122L53.1383 32.1917C53.1472 32.1689 53.1629 32.1493 53.1832 32.1355C53.2034 32.1218 53.2274 32.1144 53.2519 32.1144H54.2474C54.3443 32.1144 54.3736 32.1589 54.3352 32.2478L51.6678 38.3773C51.6534 38.4106 51.6297 38.439 51.5994 38.4589C51.5691 38.4788 51.5336 38.4894 51.4973 38.4894H50.5845C50.5758 38.4894 50.5672 38.4872 50.5596 38.483C50.5519 38.4789 50.5454 38.4728 50.5406 38.4655C50.5358 38.4582 50.5329 38.4497 50.5321 38.441C50.5313 38.4322 50.5326 38.4233 50.536 38.4152C50.7062 38.0132 50.9984 37.3394 51.4125 36.394C51.4799 36.2409 51.4504 36.097 51.3792 35.9341C50.9847 35.0311 50.4696 33.8427 49.8337 32.369C49.8004 32.2917 49.7895 32.217 49.8011 32.1447C49.8047 32.121 49.8186 32.1091 49.8428 32.1091H50.8117C50.8433 32.1092 50.8741 32.1184 50.9003 32.1356C50.9266 32.1528 50.9472 32.1773 50.9595 32.2061C51.2948 32.9925 51.5991 33.7435 51.8723 34.4591C51.9077 34.5505 51.9681 34.6695 52.0534 34.8159Z" fill="#FBF8F4"/>
<path id="Vector_38" d="M39.4238 33.785C39.4062 33.785 39.3892 33.778 39.3767 33.7655C39.3642 33.753 39.3572 33.736 39.3572 33.7183V33.6797C39.357 33.5755 39.377 33.4724 39.4162 33.376C39.4553 33.2797 39.5128 33.1922 39.5853 33.1184C39.6578 33.0446 39.744 32.986 39.8389 32.946C39.9337 32.9059 40.0355 32.8852 40.1382 32.885H40.1413C40.3488 32.8846 40.548 32.9678 40.6951 33.1163C40.8421 33.2647 40.925 33.4663 40.9254 33.6767V33.7153C40.9254 33.733 40.9183 33.7499 40.9058 33.7625C40.8933 33.775 40.8764 33.782 40.8587 33.782L39.4238 33.785Z" fill="#878787"/>
<path id="Vector_39" d="M28.7927 34.2862C28.7913 35.0514 29.2648 35.6726 29.8501 35.6737C30.4354 35.6747 30.911 35.0551 30.9124 34.2899C30.9137 33.5247 30.4403 32.9035 29.8549 32.9024C29.2696 32.9014 28.794 33.521 28.7927 34.2862Z" fill="#878787"/>
<path id="Vector_40" d="M34.439 33.1896C34.7208 32.982 35.167 32.8168 35.5041 32.9865C35.7582 33.1148 35.9296 33.3275 36.0185 33.6244C36.1968 34.2199 36.1387 34.7701 35.8443 35.2752C35.5246 35.8237 34.8261 35.7206 34.3791 35.3987C34.2428 35.3009 34.2375 35.1669 34.2367 35.0047C34.2302 34.179 34.2284 33.6871 34.2314 33.529C34.2339 33.4027 34.3031 33.2896 34.439 33.1896Z" fill="#878787"/>
<path id="Vector_41" d="M33.8156 46.3865C33.8156 46.3688 33.8086 46.3519 33.7961 46.3394C33.7835 46.3269 33.7666 46.3198 33.7489 46.3198H32.5671C32.5426 46.3198 32.5191 46.3101 32.5017 46.2928C32.4844 46.2754 32.4747 46.2519 32.4747 46.2274V45.4388C32.4747 45.4266 32.477 45.4146 32.4817 45.4034C32.4863 45.3922 32.493 45.382 32.5015 45.3734C32.51 45.3648 32.5201 45.358 32.5313 45.3534C32.5424 45.3487 32.5543 45.3464 32.5663 45.3464H34.8572C34.8764 45.3464 34.8948 45.3539 34.9084 45.3674C34.922 45.3809 34.9298 45.3992 34.93 45.4183C34.9421 46.3941 34.9426 47.3297 34.9315 48.2251C34.9305 48.2964 34.9196 48.3527 34.8989 48.3941C34.8873 48.4168 34.8694 48.4317 34.8451 48.4388C34.1729 48.6256 33.4436 48.7027 32.6572 48.6698C31.0512 48.6017 29.9959 47.6009 29.8663 46.0191C29.831 45.5847 29.8764 45.1408 30.0027 44.6873C30.2936 43.6471 31.1254 42.888 32.1679 42.6077C32.3916 42.5481 32.6921 42.5168 33.0694 42.5138C33.7292 42.5092 34.1451 42.5107 34.6376 42.6941C34.6656 42.7046 34.6897 42.7233 34.7068 42.7478C34.7239 42.7723 34.733 42.8014 34.733 42.8312V43.6168C34.733 43.6229 34.7317 43.6289 34.7291 43.6344C34.7264 43.6399 34.7226 43.6448 34.7178 43.6486C34.713 43.6525 34.7074 43.6552 34.7014 43.6567C34.6954 43.6581 34.6891 43.6582 34.683 43.657C34.3855 43.5918 34.1052 43.5395 33.8421 43.5001C33.6022 43.4638 33.3007 43.4623 32.9376 43.4956C32.4269 43.5426 31.9959 43.7368 31.6444 44.0782C31.3312 44.3817 31.1365 44.7797 31.0603 45.2721C30.9835 45.765 31.0482 46.2464 31.2542 46.7161C31.4148 47.0827 31.8133 47.4342 32.1989 47.5676C32.6964 47.7393 33.2181 47.7628 33.7641 47.638C33.7787 47.6348 33.7917 47.6267 33.8011 47.6151C33.8105 47.6035 33.8156 47.5892 33.8156 47.5744V46.3865Z" fill="#FBF8F4"/>
<path id="Vector_42" d="M37.3284 44.7116C37.5451 44.5677 37.7064 44.3245 37.9693 44.2419C38.2183 44.1631 38.4824 44.1126 38.7617 44.0904C38.8501 44.0833 38.8943 44.124 38.8943 44.2124V45.0593C38.8943 45.0697 38.8922 45.08 38.8881 45.0896C38.8839 45.0992 38.8779 45.1078 38.8703 45.1149C38.8627 45.122 38.8537 45.1274 38.8439 45.1309C38.8341 45.1344 38.8236 45.1358 38.8132 45.1351C38.338 45.1063 37.9188 45.2363 37.5557 45.5252C37.414 45.6381 37.3928 45.7964 37.3935 45.9775C37.3971 47.0654 37.3971 47.8995 37.3935 48.4798C37.3935 48.5025 37.3845 48.5243 37.3685 48.5403C37.3524 48.5564 37.3306 48.5654 37.3079 48.5654H36.4011C36.3915 48.5654 36.3819 48.5635 36.373 48.5598C36.3641 48.5561 36.356 48.5507 36.3492 48.5439C36.3423 48.537 36.3369 48.5289 36.3332 48.52C36.3295 48.5111 36.3276 48.5016 36.3276 48.4919V44.2881C36.3276 44.2722 36.3339 44.257 36.3449 44.2458C36.356 44.2346 36.3711 44.2283 36.3867 44.2283H37.1163C37.1569 44.2283 37.1958 44.2444 37.2245 44.2731C37.2532 44.3018 37.2693 44.3407 37.2693 44.3813V44.6798C37.2692 44.6867 37.271 44.6935 37.2745 44.6995C37.2781 44.7054 37.2831 44.7103 37.2892 44.7136C37.2953 44.7168 37.3022 44.7184 37.3091 44.718C37.316 44.7177 37.3227 44.7155 37.3284 44.7116Z" fill="#FBF8F4"/>
<path id="Vector_43" d="M43.8212 46.737C43.813 47.2596 43.5975 47.7574 43.2223 48.1211C42.847 48.4848 42.3426 48.6845 41.82 48.6763L41.4458 48.6704C40.9233 48.6622 40.4254 48.4468 40.0618 48.0715C39.6981 47.6962 39.4984 47.1918 39.5066 46.6693L39.5159 46.0784C39.5241 45.5559 39.7395 45.058 40.1148 44.6943C40.4901 44.3307 40.9945 44.131 41.517 44.1392L41.8912 44.145C42.4138 44.1533 42.9116 44.3687 43.2753 44.744C43.639 45.1193 43.8387 45.6237 43.8305 46.1462L43.8212 46.737ZM41.6678 47.7903C41.8072 47.7903 41.9452 47.7545 42.0739 47.685C42.2027 47.6155 42.3197 47.5136 42.4183 47.3851C42.5168 47.2567 42.595 47.1042 42.6484 46.9363C42.7017 46.7685 42.7291 46.5886 42.7291 46.407C42.7291 46.2253 42.7017 46.0454 42.6484 45.8776C42.595 45.7098 42.5168 45.5573 42.4183 45.4288C42.3197 45.3004 42.2027 45.1985 42.0739 45.1289C41.9452 45.0594 41.8072 45.0236 41.6678 45.0236C41.3863 45.0236 41.1163 45.1694 40.9173 45.4288C40.7182 45.6882 40.6064 46.0401 40.6064 46.407C40.6064 46.7739 40.7182 47.1257 40.9173 47.3851C41.1163 47.6446 41.3863 47.7903 41.6678 47.7903Z" fill="#FBF8F4"/>
<path id="Vector_44" d="M51.1633 48.4222C51.2007 48.5464 51.2189 48.6765 51.2179 48.8123C51.2128 49.576 51.2201 50.1689 51.2398 50.5911C51.2419 50.63 51.2234 50.6495 51.1845 50.6495H50.1618C50.1533 50.6495 50.145 50.6478 50.1372 50.6446C50.1294 50.6413 50.1223 50.6366 50.1163 50.6306C50.1103 50.6246 50.1055 50.6175 50.1023 50.6097C50.0991 50.6019 50.0974 50.5935 50.0974 50.5851V44.3176C50.0974 44.2651 50.1222 44.2389 50.1717 44.2389H50.9959C51.0219 44.2389 51.0472 44.2479 51.0676 44.2643C51.0879 44.2806 51.1022 44.3035 51.108 44.329L51.1686 44.5949C51.1702 44.6013 51.1735 44.6072 51.1781 44.6118C51.1827 44.6165 51.1885 44.6199 51.1949 44.6215C51.2013 44.6231 51.208 44.623 51.2143 44.6211C51.2206 44.6192 51.2263 44.6157 51.2307 44.6108C51.3459 44.4866 51.4595 44.3676 51.6179 44.2889C52.0148 44.0914 52.4411 44.0626 52.8967 44.2025C53.6656 44.4381 54.1315 45.1298 54.205 45.9146C54.2921 46.8472 54.1421 47.7381 53.408 48.3154C53.1363 48.5295 52.8338 48.648 52.5004 48.6707C52.4065 48.6772 52.2729 48.6795 52.0997 48.6775C51.9901 48.676 51.8618 48.6444 51.7148 48.5828C51.5386 48.5091 51.3711 48.4406 51.2126 48.3775C51.2061 48.375 51.1991 48.3743 51.1923 48.3756C51.1855 48.3768 51.1792 48.3799 51.1741 48.3846C51.169 48.3892 51.1652 48.3952 51.1633 48.4019C51.1614 48.4085 51.1614 48.4155 51.1633 48.4222ZM51.2194 46.3972C51.2093 46.9275 51.2052 47.2028 51.2073 47.223C51.2398 47.5086 51.63 47.6896 51.8724 47.7654C52.4057 47.9305 52.8406 47.5646 52.9936 47.0631C53.0613 46.8394 53.0972 46.6293 53.1012 46.4328C53.1047 46.2358 53.0767 46.0245 53.0171 45.7987C52.8838 45.2919 52.4626 44.9093 51.9232 45.0548C51.6785 45.1214 51.2815 45.2873 51.2383 45.5722C51.2353 45.5919 51.229 45.8669 51.2194 46.3972Z" fill="#FBF8F4"/>
<path id="Vector_45" d="M46.876 47.7705C47.3912 47.7713 47.7207 47.4622 47.7321 46.9342C47.7437 46.3604 47.7452 45.4791 47.7366 44.2902C47.7361 44.2529 47.7546 44.2342 47.792 44.2342H48.7904C48.844 44.2342 48.8705 44.2609 48.87 44.3145C48.8659 44.8746 48.8629 45.6917 48.8609 46.766C48.8601 47.094 48.8207 47.4471 48.6798 47.7364C48.4147 48.2819 47.9586 48.5897 47.3116 48.6599C47.2101 48.671 47.0644 48.6763 46.8745 48.6758C46.6846 48.6753 46.5389 48.6695 46.4374 48.6584C45.7904 48.5852 45.3356 48.2751 45.073 47.7281C44.9336 47.4387 44.8957 47.0849 44.8965 46.7569C44.899 45.6827 44.8995 44.8655 44.898 44.3054C44.898 44.2519 44.9248 44.2253 44.9783 44.2258L45.9768 44.2304C46.0142 44.2304 46.0324 44.2491 46.0313 44.2864C46.0177 45.4753 46.0154 46.3566 46.0245 46.9304C46.0329 47.4584 46.3616 47.769 46.876 47.7705Z" fill="#FBF8F4"/>
<path id="Vector_46" d="M53.101 46.4327C53.097 46.6291 53.0611 46.8392 52.9934 47.063C52.8404 47.5645 52.4055 47.9304 51.8722 47.7652C51.6298 47.6895 51.2396 47.5084 51.207 47.2228C51.205 47.2026 51.2091 46.9274 51.2192 46.3971C51.2288 45.8668 51.2351 45.5918 51.2381 45.5721C51.2813 45.2872 51.6783 45.1213 51.923 45.0546C52.4624 44.9092 52.8836 45.2918 53.0169 45.7986C53.0765 46.0243 53.1045 46.2357 53.101 46.4327Z" fill="#878787"/>
<path id="Vector_47" d="M40.6065 46.407C40.6065 47.171 41.0817 47.7903 41.6679 47.7903C42.2541 47.7903 42.7292 47.171 42.7292 46.407C42.7292 45.643 42.2541 45.0237 41.6679 45.0237C41.0817 45.0237 40.6065 45.643 40.6065 46.407Z" fill="#878787"/>
</g>
<defs>
<clipPath id="clip0_1859_6976">
<rect width="60" height="60" fill="white" transform="translate(0.114746 0.724365)"/>
</clipPath>
</defs>
</svg>
